<svg fill='white' version="1.1" id="Layer_1" xmlns="http://www.w3.org/2000/svg" xmlns:xlink="http://www.w3.org/1999/xlink" x="0px" y="0px"
	 width="100%" viewBox="0 0 512 512" enable-background="new 0 0 512 512" xml:space="preserve">
<path fill="#000000" opacity="1.000000" stroke="none" 
	d="
M513.000000,80.000000 
	C513.000000,170.354233 513.000000,260.708466 512.762939,351.852509 
	C510.365234,350.724182 508.204651,348.806000 505.904572,346.587891 
	C502.545715,343.175323 499.326385,340.062744 495.962524,336.646362 
	C489.786469,330.213226 483.754944,324.083862 477.485321,317.712555 
	C474.352356,320.957611 471.660309,323.910919 468.781586,326.669434 
	C466.879852,328.491699 466.332336,330.028473 468.494659,332.047089 
	C472.375366,335.669952 476.142853,339.414154 480.105347,343.416321 
	C480.695770,344.283020 481.138458,344.841003 481.800934,345.675964 
	C438.970215,345.675964 396.680084,345.675964 353.831390,345.675964 
	C353.831390,339.239838 353.831390,333.122314 353.899780,326.540253 
	C353.922699,315.051636 353.877167,304.027527 353.899414,292.538879 
	C353.921265,281.384277 353.875397,270.694183 353.896667,259.539429 
	C353.918945,249.383789 353.874115,239.692795 353.895691,229.537857 
	C353.975098,224.446793 354.079559,219.817474 353.967468,215.193390 
	C353.898132,212.332413 354.887634,211.226334 357.911194,210.878662 
	C362.009644,210.407364 366.008942,209.073868 370.385803,208.064697 
	C371.166534,207.957550 371.612213,207.895920 372.295074,207.843475 
	C372.833649,207.692444 373.011932,207.443909 373.427979,207.051193 
	C389.984589,200.586166 401.617584,188.374634 413.449371,175.897293 
	C415.275391,174.230652 416.829987,172.730194 418.332214,171.179016 
	C424.804657,164.495895 431.915253,158.564194 440.873047,155.711411 
	C447.513184,153.596725 454.470367,152.477554 461.628235,150.836502 
	C461.628235,146.437881 461.628235,141.404434 461.628235,136.117950 
	C450.377228,135.572098 440.049866,137.960739 430.252014,142.416199 
	C414.457123,149.598770 403.670685,162.827362 391.652344,175.047516 
	C388.161835,178.038773 385.058014,180.982407 381.765533,183.697281 
	C372.230377,191.559738 361.176514,195.381317 348.882019,196.027206 
	C337.106781,196.645828 326.280182,193.681274 315.922974,187.658051 
	C315.043884,186.952988 314.241486,186.652237 313.659668,186.113327 
	C306.791168,179.751389 299.955627,173.353867 292.962280,166.663361 
	C288.450317,162.315750 284.128845,158.224838 279.717590,154.233139 
	C261.214935,137.490265 239.307861,133.181732 215.445129,137.449753 
	C197.155075,140.721039 183.413895,151.925476 170.643768,165.085083 
	C169.355087,166.562378 168.455307,167.953583 167.335739,169.136826 
	C158.924164,178.026871 149.850815,186.103653 138.559128,191.940491 
	C120.958313,198.319153 104.163719,197.202194 87.496155,188.975357 
	C79.506409,181.717392 71.758369,174.683060 64.047188,167.608566 
	C60.657402,164.498672 57.342674,161.306931 53.690590,157.995682 
	C52.096584,156.568710 51.023422,154.819016 49.475101,154.116364 
	C44.463573,151.842178 44.888840,147.631805 44.962799,143.333389 
	C45.044914,138.561035 44.884666,133.784500 44.895248,128.544342 
	C44.917484,117.387276 44.874420,106.695679 44.894947,95.538910 
	C44.916328,84.384445 44.874115,73.695152 44.895050,62.540504 
	C44.916565,54.050076 44.874928,46.024998 44.894753,37.621483 
	C45.074520,35.730515 45.192829,34.217983 45.416641,31.356598 
	C51.185135,37.604748 56.031120,42.853683 60.989883,48.224773 
	C65.212196,43.924244 68.903084,40.164993 72.750626,36.246174 
	C62.421459,25.920900 52.033607,15.584039 41.726376,5.167409 
	C40.582245,4.011137 39.897690,2.400120 39.000000,1.000001 
	C136.687561,1.000000 234.375122,1.000000 332.671204,1.357943 
	C322.153259,7.020700 314.788727,15.060717 314.106659,28.455927 
	C314.046539,31.822346 314.046539,34.735985 314.046539,38.126389 
	C308.325470,38.126389 303.416077,38.126389 298.414642,38.126389 
	C298.414642,43.652813 298.414642,48.668911 298.414642,54.162170 
	C303.735626,54.162170 308.648254,54.162170 313.757874,54.162170 
	C313.911804,57.090202 314.040955,59.546597 314.109009,62.467957 
	C314.047852,75.509460 314.047852,88.086006 314.047852,100.670998 
	C319.705383,100.670998 324.615173,100.670998 329.831635,100.670998 
	C329.831635,87.896240 329.831635,75.449684 329.894653,62.552834 
	C329.957642,59.526558 329.957642,56.950577 329.957642,53.890686 
	C335.997772,53.890686 341.236633,53.890686 346.596619,53.890686 
	C346.596619,48.373081 346.596619,43.359612 346.596619,37.859840 
	C340.960968,37.859840 335.721191,37.859840 330.124695,37.859840 
	C330.124695,33.930676 330.124695,30.487858 330.413605,26.839596 
	C332.789459,19.899002 336.667023,17.030905 343.762146,17.004032 
	C348.020355,16.987904 352.278687,17.001068 357.000000,17.001068 
	C357.000000,11.219872 357.000000,6.109936 357.000000,1.000000 
	C408.892975,1.000000 460.785980,1.000000 513.000000,1.000000 
	C513.000000,19.686335 513.000000,38.374508 512.766479,57.850460 
	C512.059692,58.411488 511.586456,58.184734 511.068054,57.583752 
	C508.488953,45.842667 492.244080,32.832745 479.385803,35.632389 
	C479.385803,40.648495 479.385803,45.689171 479.385803,48.791500 
	C485.007782,52.385555 489.476379,55.242271 494.110870,58.426525 
	C497.797668,65.010597 498.186127,71.375290 494.639221,78.042603 
	C491.284210,84.524826 485.042511,85.867676 479.325928,87.573494 
	C479.325928,92.822746 479.325928,97.732849 479.325928,102.596275 
	C492.344208,104.048294 506.727478,93.727661 511.412415,79.947754 
	C512.179077,79.862938 512.589539,79.931465 513.000000,80.000000 
M377.994812,64.287231 
	C381.007843,55.969494 386.976562,51.354763 395.673706,50.566143 
	C395.673706,45.254559 395.673706,40.343990 395.673706,35.476719 
	C379.488190,33.628609 362.580139,47.923264 361.257751,65.485428 
	C359.144806,88.405876 380.084198,105.194366 395.769653,102.238518 
	C395.769653,97.342461 395.769653,92.416496 395.769653,87.535591 
	C381.887115,84.897133 375.521576,74.942833 377.994812,64.287231 
M435.001526,53.508179 
	C429.988647,48.266350 424.975800,43.024525 419.570923,37.372787 
	C416.389923,40.771217 414.046722,43.616577 411.344299,46.065586 
	C408.634338,48.521381 408.464539,50.393139 411.281281,52.945343 
	C416.802094,57.947639 422.082794,63.214901 427.983917,68.872040 
	C421.989624,74.735825 416.771820,80.065781 411.290009,85.108757 
	C408.484436,87.689697 408.678009,89.533318 411.378754,91.984840 
	C414.151489,94.501770 416.559937,97.420021 420.059723,101.157921 
	C426.838715,94.018120 432.983551,87.546227 440.000000,80.156326 
	C446.322815,86.964211 452.511780,93.627991 458.643372,100.229973 
	C462.678650,96.244186 466.299438,92.667831 470.934814,88.089340 
	C464.118286,81.716095 457.384583,75.420273 449.695312,68.231056 
	C456.829102,61.425392 463.406982,55.150085 469.403168,49.429695 
	C465.847351,45.504555 462.430450,41.732719 458.153137,37.011112 
	C451.748138,43.984867 445.595337,50.684044 439.314728,57.522408 
	C437.663971,56.000031 436.582977,55.003113 435.001526,53.508179 
z"/>
<path fill="#000000" opacity="1.000000" stroke="none" 
	d="
M1.000000,467.000000 
	C1.000000,432.312439 1.000000,397.624878 1.468657,362.468719 
	C10.862063,362.000122 19.786814,362.000122 29.101576,362.000122 
	C29.101576,371.987274 29.101576,381.251923 29.101576,390.679504 
	C34.561543,390.679504 39.606655,390.679504 45.234921,390.679504 
	C45.234921,380.967712 45.234921,371.576874 45.234921,362.367859 
	C190.979614,362.367859 336.137695,362.367859 482.304810,362.367859 
	C477.369934,367.240143 472.988373,371.308136 468.979431,375.715088 
	C468.037415,376.750610 467.543396,379.500885 468.234650,380.483185 
	C470.873383,384.233032 474.080353,387.583038 477.414307,391.478699 
	C484.033875,384.332489 489.315582,378.384979 494.870728,372.704895 
	C500.072723,367.385834 505.564392,362.350006 511.306061,357.004974 
	C512.122375,356.880280 512.561157,356.940155 513.000000,357.000000 
	C513.000000,393.354218 513.000000,429.708466 512.534912,466.531738 
	C508.147705,467.000824 504.225494,467.000824 499.830414,467.000824 
	C499.830414,458.566284 499.830414,450.786041 499.902222,442.541718 
	C499.974030,430.487885 499.974030,418.898102 499.974030,407.005798 
	C497.325958,407.005798 495.349335,407.005798 493.372711,407.005798 
	C425.905945,407.005737 358.439148,406.980835 290.972412,407.026581 
	C277.408325,407.035767 265.953064,411.928711 257.445618,422.331848 
	C254.226791,419.783569 251.135422,417.336182 247.894135,414.574707 
	C240.705688,409.310974 232.838165,407.007599 224.280533,407.006409 
	C156.241531,406.996887 88.202538,407.000977 20.163540,407.000916 
	C18.224443,407.000916 16.285349,407.000916 14.167340,407.000916 
	C14.167340,410.410492 14.167340,413.206451 14.100355,416.466675 
	C14.078781,425.955322 14.124193,434.979706 14.104923,444.468506 
	C14.040242,452.178833 14.040242,459.424744 14.040242,467.000000 
	C9.249097,467.000000 5.124548,467.000000 1.000000,467.000000 
z"/>
<path fill="#AF47B0" opacity="1.000000" stroke="none" 
	d="
M513.000000,493.000000 
	C513.000000,499.661346 513.000000,506.322723 513.000000,512.962280 
	C342.333344,512.962280 171.666656,512.962280 1.000000,512.962280 
	C1.000000,506.929260 1.000000,500.933990 1.405481,494.378021 
	C6.703393,493.538483 11.595824,493.259674 16.503395,493.423126 
	C16.024944,499.011017 19.812891,497.792969 22.556459,497.793488 
	C179.015533,497.821747 335.474609,497.818604 491.933685,497.818634 
	C493.733673,497.818634 495.533661,497.818634 497.513702,497.818634 
	C497.756775,495.894165 497.939880,494.444336 498.581390,492.995789 
	C503.693207,492.998047 508.346588,492.999023 513.000000,493.000000 
z"/>
<path fill="#A645AE" opacity="1.000000" stroke="none" 
	d="
M513.000000,492.531616 
	C508.346588,492.999023 503.693207,492.998047 498.513489,492.542969 
	C497.987152,489.149078 497.987152,486.209259 497.987152,483.180664 
	C337.170807,483.180664 177.066574,483.180664 16.488256,483.180664 
	C16.488256,486.696320 16.488256,489.838593 16.488256,492.980865 
	C11.595824,493.259674 6.703393,493.538483 1.405481,493.908630 
	C1.000000,487.645599 1.000000,481.291199 1.431521,474.462280 
	C9.833761,473.658478 17.804384,473.044739 25.775217,473.041992 
	C188.183472,472.986053 350.591736,473.000000 513.000000,473.000000 
	C513.000000,479.354401 513.000000,485.708801 513.000000,492.531616 
z"/>
<path fill="#000000" opacity="1.000000" stroke="none" 
	d="
M1.000000,346.000000 
	C1.000000,281.645782 1.000000,217.291550 1.447439,152.467941 
	C9.512181,153.645660 17.175301,155.116364 24.711962,157.073914 
	C26.423288,157.518387 27.696234,159.650665 29.108574,161.470520 
	C29.087357,171.957474 29.128521,181.979996 29.106735,192.467300 
	C29.086390,203.289627 29.128994,213.647171 29.109550,224.469498 
	C29.089081,235.292099 29.130657,245.649918 29.108864,256.472107 
	C29.087494,267.293610 29.129494,277.650787 29.107811,288.472290 
	C29.085756,301.292725 29.127388,313.648804 29.105072,326.469238 
	C29.041126,333.176819 29.041126,339.420074 29.041126,346.000000 
	C19.213329,346.000000 10.106665,346.000000 1.000000,346.000000 
z"/>
<path fill="#8047AB" opacity="1.000000" stroke="none" 
	d="
M513.000000,356.583344 
	C512.561157,356.940155 512.122375,356.880280 510.849731,356.955566 
	C507.352325,357.060455 504.688812,357.003815 502.025269,357.003754 
	C335.016846,356.999542 168.008423,357.000000 1.000000,357.000000 
	C1.000000,354.629425 1.000000,352.258881 1.468657,349.444153 
	C166.530853,349.000000 331.124390,349.000092 495.717926,348.998993 
	C497.550354,348.998993 499.436615,349.251617 501.199738,348.897888 
	C502.881256,348.560486 504.434448,347.583588 506.044067,346.887848 
	C508.204651,348.806000 510.365234,350.724182 512.762939,352.321167 
	C513.000000,353.388885 513.000000,354.777802 513.000000,356.583344 
z"/>
<path fill="#A345AE" opacity="1.000000" stroke="none" 
	d="
M513.000000,472.571533 
	C350.591736,473.000000 188.183472,472.986053 25.775217,473.041992 
	C17.804384,473.044739 9.833761,473.658478 1.431521,473.993866 
	C1.000000,471.958344 1.000000,469.916656 1.000000,467.437500 
	C5.124548,467.000000 9.249097,467.000000 14.040242,467.000000 
	C14.040242,459.424744 14.040242,452.178833 14.498106,444.370605 
	C19.793718,443.538116 24.631468,443.267944 29.506222,443.376099 
	C29.651024,444.505280 29.758823,445.256195 29.773651,446.416199 
	C29.740507,448.214752 29.800339,449.604156 29.766449,451.415436 
	C29.736908,453.556915 29.801090,455.276520 29.770218,457.449768 
	C29.391497,470.137756 28.880507,467.781616 39.190678,467.794159 
	C105.997536,467.875397 172.804535,467.835785 239.611481,467.835785 
	C250.348129,467.835785 250.348129,467.835754 249.613205,456.606506 
	C249.643692,454.462280 249.587921,452.741455 249.615143,450.655518 
	C249.598984,448.818359 249.499847,447.346405 249.433899,445.481995 
	C249.269608,444.062134 249.072144,443.034729 248.885208,441.655792 
	C248.503830,440.205750 248.111893,439.107239 247.635742,437.691528 
	C246.629562,435.610931 245.707611,433.847534 245.267563,432.071167 
	C251.347504,432.043152 256.954681,431.842377 262.538483,432.116669 
	C264.421295,432.209167 266.244904,433.506897 268.040100,434.540649 
	C267.719574,435.555939 267.454468,436.284332 266.978058,437.284729 
	C266.232971,439.040710 265.699249,440.524750 265.102814,442.434143 
	C265.033936,444.575653 265.027771,446.291718 264.944122,448.446716 
	C264.918335,451.259674 264.970062,453.633789 264.947510,456.464081 
	C264.873291,460.361084 264.873291,463.801880 264.873291,467.400269 
	C338.521423,467.400269 411.544159,467.400269 484.738953,467.400269 
	C484.738953,463.319214 484.738953,459.671997 484.811432,455.583923 
	C484.836212,452.766937 484.788513,450.390747 484.807831,447.600098 
	C484.952942,445.791016 485.031006,444.396454 485.567566,443.001465 
	C490.627472,443.002655 495.228943,443.004211 499.830414,443.005768 
	C499.830414,450.786041 499.830414,458.566284 499.830414,467.000824 
	C504.225494,467.000824 508.147705,467.000824 512.534912,467.000427 
	C513.000000,468.714355 513.000000,470.428711 513.000000,472.571533 
z"/>
<path fill="#8347AB" opacity="1.000000" stroke="none" 
	d="
M1.000000,357.416656 
	C168.008423,357.000000 335.016846,356.999542 502.025269,357.003754 
	C504.688812,357.003815 507.352325,357.060455 510.472229,357.140137 
	C505.564392,362.350006 500.072723,367.385834 494.870728,372.704895 
	C489.315582,378.384979 484.033875,384.332489 477.414307,391.478699 
	C474.080353,387.583038 470.873383,384.233032 468.234650,380.483185 
	C467.543396,379.500885 468.037415,376.750610 468.979431,375.715088 
	C472.988373,371.308136 477.369934,367.240143 482.304810,362.367859 
	C336.137695,362.367859 190.979614,362.367859 45.234921,362.367859 
	C45.234921,371.576874 45.234921,380.967712 45.234921,390.679504 
	C39.606655,390.679504 34.561543,390.679504 29.101576,390.679504 
	C29.101576,381.251923 29.101576,371.987274 29.101576,362.000122 
	C19.786814,362.000122 10.862063,362.000122 1.468657,362.000061 
	C1.000000,360.611115 1.000000,359.222198 1.000000,357.416656 
z"/>
<path fill="#7E48AB" opacity="1.000000" stroke="none" 
	d="
M505.904572,346.587891 
	C504.434448,347.583588 502.881256,348.560486 501.199738,348.897888 
	C499.436615,349.251617 497.550354,348.998993 495.717926,348.998993 
	C331.124390,349.000092 166.530853,349.000000 1.468657,349.000000 
	C1.000000,348.250000 1.000000,347.500000 1.000000,346.375000 
	C10.106665,346.000000 19.213329,346.000000 29.041126,346.000000 
	C29.041126,339.420074 29.041126,333.176819 29.498972,326.371033 
	C34.914764,325.541016 39.872711,325.273529 44.894684,325.470337 
	C44.958706,332.506805 44.958706,339.078949 44.958706,345.676697 
	C66.325645,345.676697 86.974983,345.676697 108.168114,345.676697 
	C108.168114,341.573486 108.168114,337.788849 108.561600,334.100830 
	C113.735374,334.470276 118.515656,334.743073 123.410210,335.462738 
	C123.562370,337.737732 123.804153,339.589355 123.596878,341.389252 
	C123.124207,345.493713 124.683075,347.003204 128.883850,346.792755 
	C135.021835,346.485260 141.186722,346.714813 147.340134,346.715210 
	C151.585648,346.715485 155.831161,346.715240 161.578705,346.715240 
	C157.216080,342.027466 153.984665,338.555237 151.237625,335.067627 
	C157.825943,334.675842 163.929886,334.299469 170.337296,334.077545 
	C173.293533,337.158142 176.084229,339.973053 178.559708,343.042236 
	C180.955704,346.012848 183.812500,346.908844 187.574020,346.788940 
	C195.849548,346.525177 204.139359,346.727325 212.423080,346.686218 
	C213.903625,346.678894 215.382919,346.416351 217.793030,346.180664 
	C213.003464,341.153656 209.030685,336.983917 205.272858,332.512451 
	C207.351547,331.807922 209.197479,331.243011 211.082703,331.036194 
	C214.984634,330.608246 218.907455,330.370819 223.118149,330.217163 
	C229.031555,335.744141 233.806641,343.236420 240.498642,345.884521 
	C247.398636,348.614960 256.164764,346.633423 264.114502,346.704376 
	C266.103546,346.722137 268.095520,346.766052 270.081146,346.681122 
	C271.271851,346.630127 272.452850,346.352905 273.638245,346.177399 
	C274.106659,345.509918 274.575073,344.842468 275.043488,344.174988 
	C269.002014,338.792267 262.960571,333.409515 257.329712,327.932159 
	C261.012787,327.554352 264.351471,327.573364 267.533325,326.876434 
	C269.491852,326.447418 271.210815,324.924866 273.338013,324.044708 
	C280.254913,330.736694 286.844971,337.304230 293.512360,343.792267 
	C294.662048,344.911011 296.124237,346.477905 297.469147,346.505219 
	C308.357849,346.726379 319.253052,346.629364 331.467438,346.629364 
	C325.910126,340.818329 321.275635,335.972290 317.133026,331.102783 
	C323.652649,330.609406 329.680420,330.139496 335.936523,329.803528 
	C336.750458,330.306000 337.336090,330.674469 337.999420,331.195435 
	C338.265686,331.227417 338.454254,331.106873 338.718506,330.590759 
	C338.887512,329.126678 338.980804,328.058197 339.534790,326.991638 
	C344.607422,326.997345 349.219421,327.001068 353.831390,327.004791 
	C353.831390,333.122314 353.831390,339.239838 353.831390,345.675964 
	C396.680084,345.675964 438.970215,345.675964 481.800934,345.675964 
	C481.138458,344.841003 480.695770,344.283020 480.121887,343.000946 
	C479.893494,339.130890 481.573883,338.081879 484.541595,337.968048 
	C488.404083,337.819916 492.252533,337.306427 496.107025,336.950134 
	C499.326385,340.062744 502.545715,343.175323 505.904572,346.587891 
z"/>
<path fill="#000000" opacity="1.000000" stroke="none" 
	d="
M1.000000,136.000000 
	C1.000000,103.645775 1.000000,71.291542 1.318818,38.271988 
	C5.248062,40.965340 8.858489,44.324028 13.823706,48.943039 
	C18.849833,43.630291 23.843967,38.351357 28.844109,33.070343 
	C28.956018,34.712265 29.061924,36.356274 29.106571,38.465454 
	C29.086487,46.955883 29.127661,54.981148 29.107765,63.471146 
	C29.087120,74.625572 29.127548,85.315269 29.106743,96.469765 
	C29.087358,107.625908 29.129208,118.317238 29.110497,129.463379 
	C29.049936,133.496323 29.049936,137.074463 29.049936,139.750122 
	C19.340298,138.451996 10.170149,137.225998 1.000000,136.000000 
z"/>
<path fill="#1F4EA4" opacity="1.000000" stroke="none" 
	d="
M29.167828,38.000282 
	C29.061924,36.356274 28.956018,34.712265 28.844109,33.070343 
	C23.843967,38.351357 18.849833,43.630291 13.823706,48.943039 
	C8.858489,44.324028 5.248062,40.965340 1.318818,37.803329 
	C1.000000,37.250000 1.000000,36.500000 1.318810,35.571793 
	C12.677548,24.490120 23.723604,13.592820 34.727020,2.652634 
	C35.048214,2.333284 34.919136,1.561065 35.000000,1.000000 
	C36.066669,1.000000 37.133339,1.000000 38.600002,1.000001 
	C39.897690,2.400120 40.582245,4.011137 41.726376,5.167409 
	C52.033607,15.584039 62.421459,25.920900 72.750626,36.246174 
	C68.903084,40.164993 65.212196,43.924244 60.989883,48.224773 
	C56.031120,42.853683 51.185135,37.604748 45.416641,31.356598 
	C45.192829,34.217983 45.074520,35.730515 44.495102,37.574787 
	C39.078602,37.937782 34.123215,37.969032 29.167828,38.000282 
z"/>
<path fill="#454DA7" opacity="1.000000" stroke="none" 
	d="
M1.000000,136.466858 
	C10.170149,137.225998 19.340298,138.451996 29.049936,139.750122 
	C29.049936,137.074463 29.049936,133.496323 29.565769,129.462173 
	C34.997715,129.007370 39.913830,129.008591 44.829945,129.009796 
	C44.884666,133.784500 45.044914,138.561035 44.962799,143.333389 
	C44.888840,147.631805 44.463573,151.842178 49.475101,154.116364 
	C51.023422,154.819016 52.096584,156.568710 53.551689,158.336426 
	C51.832191,159.554932 49.971252,160.816910 48.060238,160.897964 
	C41.773586,161.164551 35.468784,161.003098 29.170958,161.006073 
	C27.696234,159.650665 26.423288,157.518387 24.711962,157.073914 
	C17.175301,155.116364 9.512181,153.645660 1.447439,151.999283 
	C1.000000,146.977905 1.000000,141.955811 1.000000,136.466858 
z"/>
<path fill="#1A4FA3" opacity="1.000000" stroke="none" 
	d="
M356.531372,1.000000 
	C357.000000,6.109936 357.000000,11.219872 357.000000,17.001068 
	C352.278687,17.001068 348.020355,16.987904 343.762146,17.004032 
	C336.667023,17.030905 332.789459,19.899002 329.942871,26.831444 
	C324.177734,27.353542 319.172241,27.678347 314.166779,28.003149 
	C314.788727,15.060717 322.153259,7.020700 333.139862,1.357943 
	C340.687592,1.000000 348.375153,1.000000 356.531372,1.000000 
z"/>
<path fill="#000000" opacity="1.000000" stroke="none" 
	d="
M34.531342,1.000000 
	C34.919136,1.561065 35.048214,2.333284 34.727020,2.652634 
	C23.723604,13.592820 12.677548,24.490120 1.318810,35.196793 
	C1.000000,23.740095 1.000000,12.480190 1.000000,1.000000 
	C12.019917,1.000000 23.041300,1.000000 34.531342,1.000000 
z"/>
<path fill="#2C4DA5" opacity="1.000000" stroke="none" 
	d="
M513.000000,79.531418 
	C512.589539,79.931465 512.179077,79.862938 511.093506,79.771484 
	C508.655640,79.812302 506.854248,80.137650 505.138184,79.884583 
	C501.712921,79.379463 498.334442,78.556999 494.936646,77.865601 
	C498.186127,71.375290 497.797668,65.010597 494.433990,58.281891 
	C500.098541,57.859138 505.605896,57.908562 511.113220,57.957985 
	C511.586456,58.184734 512.059692,58.411488 512.766479,58.319118 
	C513.000000,65.020950 513.000000,72.041893 513.000000,79.531418 
z"/>
<path fill="#2C4DA5" opacity="1.000000" stroke="none" 
	d="
M435.251770,53.757187 
	C436.582977,55.003113 437.663971,56.000031 439.314728,57.522408 
	C445.595337,50.684044 451.748138,43.984867 458.153137,37.011112 
	C462.430450,41.732719 465.847351,45.504555 469.403168,49.429695 
	C463.406982,55.150085 456.829102,61.425392 449.695312,68.231056 
	C457.384583,75.420273 464.118286,81.716095 470.934814,88.089340 
	C466.299438,92.667831 462.678650,96.244186 458.643372,100.229973 
	C452.511780,93.627991 446.322815,86.964211 440.000000,80.156326 
	C432.983551,87.546227 426.838715,94.018120 420.059723,101.157921 
	C416.559937,97.420021 414.151489,94.501770 411.378754,91.984840 
	C408.678009,89.533318 408.484436,87.689697 411.290009,85.108757 
	C416.771820,80.065781 421.989624,74.735825 427.983917,68.872040 
	C422.082794,63.214901 416.802094,57.947639 411.281281,52.945343 
	C408.464539,50.393139 408.634338,48.521381 411.344299,46.065586 
	C414.046722,43.616577 416.389923,40.771217 419.570923,37.372787 
	C424.975800,43.024525 429.988647,48.266350 435.251770,53.757187 
z"/>
<path fill="#454DA7" opacity="1.000000" stroke="none" 
	d="
M170.930862,164.902664 
	C183.413895,151.925476 197.155075,140.721039 215.445129,137.449753 
	C239.307861,133.181732 261.214935,137.490265 279.717590,154.233139 
	C284.128845,158.224838 288.450317,162.315750 292.486328,166.669739 
	C285.297760,167.053802 278.436005,167.129181 271.281708,167.067139 
	C255.532944,152.923050 237.566269,148.953659 216.426010,153.219330 
	C221.869125,158.889420 226.662140,163.882278 230.955597,168.897903 
	C224.319473,169.274887 218.182892,169.629105 211.749695,169.829254 
	C208.032440,166.367615 204.611816,163.060028 200.981247,159.549438 
	C197.023438,162.569534 193.476868,165.275818 189.527740,167.889923 
	C184.916992,167.530579 180.687057,167.438095 176.510361,166.917984 
	C174.596558,166.679657 172.787445,165.600510 170.930862,164.902664 
z"/>
<path fill="#544BA8" opacity="1.000000" stroke="none" 
	d="
M87.752846,189.182678 
	C104.163719,197.202194 120.958313,198.319153 138.922272,192.146606 
	C147.880402,192.576141 156.083374,192.844315 164.104187,193.404755 
	C160.190521,196.573074 156.459000,199.449112 152.300018,202.654602 
	C155.372757,205.574631 158.198120,208.259567 161.177277,211.240601 
	C163.903580,214.320618 166.476059,217.104523 168.988693,220.276901 
	C167.069702,221.774078 165.328079,223.231354 163.323044,223.907379 
	C160.521378,224.851990 157.523148,225.213562 154.320374,225.624023 
	C149.192047,220.634079 144.438065,215.752319 139.448242,211.124863 
	C138.299408,210.059448 136.281082,209.246582 134.767914,209.394180 
	C131.011932,209.760529 127.316597,210.748566 122.989296,211.607483 
	C122.989296,216.667877 122.862427,221.776917 123.062294,226.873123 
	C123.126915,228.520676 124.049324,230.134583 124.078003,231.804108 
	C118.441872,231.898239 113.307091,231.952118 108.103714,231.541626 
	C108.021614,225.756058 107.912003,220.432709 108.032204,215.114548 
	C108.099625,212.131195 106.877556,211.285065 103.948097,210.912155 
	C89.167557,209.030548 76.499809,202.671478 66.323318,191.905212 
	C70.080452,191.465530 73.492737,191.371140 76.867126,190.963242 
	C80.514153,190.522385 84.125778,189.788666 87.752846,189.182678 
z"/>
<path fill="#514BA8" opacity="1.000000" stroke="none" 
	d="
M372.057922,207.834305 
	C371.612213,207.895920 371.166534,207.957550 370.128876,207.768646 
	C368.015228,207.017517 366.497589,206.097382 364.971191,206.082642 
	C352.734314,205.964249 340.495026,205.953888 328.258789,206.101990 
	C326.831696,206.119263 325.418671,207.301559 323.628723,207.928864 
	C314.903809,203.250107 306.549347,198.586243 298.020630,193.640625 
	C296.421448,191.957825 294.996552,190.556793 293.948425,189.013672 
	C295.927673,188.826691 297.531189,188.804077 299.132538,188.732895 
	C304.789459,188.481491 310.445648,188.213455 316.102112,187.951721 
	C326.280182,193.681274 337.106781,196.645828 348.882019,196.027206 
	C361.176514,195.381317 372.230377,191.559738 381.765533,183.697281 
	C385.058014,180.982407 388.161835,178.038773 391.971619,175.225006 
	C399.445526,175.513641 406.299713,175.776886 413.153870,176.040131 
	C401.617584,188.374634 389.984589,200.586166 373.248291,207.153198 
	C372.471222,207.460709 372.254608,207.635132 372.057922,207.834305 
z"/>
<path fill="#4D4CA8" opacity="1.000000" stroke="none" 
	d="
M87.496155,188.975372 
	C84.125778,189.788666 80.514153,190.522385 76.867126,190.963242 
	C73.492737,191.371140 70.080452,191.465530 66.013428,191.756241 
	C59.047436,185.204803 52.752876,178.595123 46.458317,171.985428 
	C45.915600,172.274506 45.372887,172.563583 44.830170,172.852661 
	C44.830170,178.902756 44.830170,184.952866 44.378159,191.002548 
	C39.007324,191.335587 34.088505,191.669037 29.169685,192.002502 
	C29.128521,181.979996 29.087357,171.957474 29.108574,161.470520 
	C35.468784,161.003098 41.773586,161.164551 48.060238,160.897964 
	C49.971252,160.816910 51.832191,159.554932 53.854965,158.493103 
	C57.342674,161.306931 60.657402,164.498672 64.047188,167.608566 
	C71.758369,174.683060 79.506409,181.717392 87.496155,188.975372 
z"/>
<path fill="#454DA7" opacity="1.000000" stroke="none" 
	d="
M413.449371,175.897293 
	C406.299713,175.776886 399.445526,175.513641 392.272095,175.072922 
	C403.670685,162.827362 414.457123,149.598770 430.252014,142.416199 
	C440.049866,137.960739 450.377228,135.572098 461.628235,136.117950 
	C461.628235,141.404434 461.628235,146.437881 461.628235,150.836502 
	C454.470367,152.477554 447.513184,153.596725 440.873047,155.711411 
	C431.915253,158.564194 424.804657,164.495895 418.332214,171.179016 
	C416.829987,172.730194 415.275391,174.230652 413.449371,175.897293 
z"/>
<path fill="#254EA4" opacity="1.000000" stroke="none" 
	d="
M314.106659,28.455927 
	C319.172241,27.678347 324.177734,27.353542 329.653931,27.036890 
	C330.124695,30.487858 330.124695,33.930676 330.124695,37.859840 
	C335.721191,37.859840 340.960968,37.859840 346.596619,37.859840 
	C346.596619,43.359612 346.596619,48.373081 346.596619,53.890686 
	C341.236633,53.890686 335.997772,53.890686 329.957642,53.890686 
	C329.957642,56.950577 329.957642,59.526558 329.442932,62.552357 
	C324.008820,62.669113 319.089478,62.336056 314.170105,62.002995 
	C314.040955,59.546597 313.911804,57.090202 313.757874,54.162170 
	C308.648254,54.162170 303.735626,54.162170 298.414642,54.162170 
	C298.414642,48.668911 298.414642,43.652813 298.414642,38.126389 
	C303.416077,38.126389 308.325470,38.126389 314.046539,38.126389 
	C314.046539,34.735985 314.046539,31.822346 314.106659,28.455927 
z"/>
<path fill="#6A4AAA" opacity="1.000000" stroke="none" 
	d="
M353.829529,260.004089 
	C353.875397,270.694183 353.921265,281.384277 353.492798,292.586304 
	C351.230164,293.385254 349.439545,293.658661 347.653992,293.962006 
	C344.329956,294.526703 341.008850,295.108856 337.399963,295.485657 
	C331.824554,290.158447 326.535736,285.029266 321.085419,279.600830 
	C315.483795,273.749756 310.043671,268.197906 304.966705,262.370178 
	C307.249512,261.730347 309.156464,261.264374 311.091461,261.024292 
	C314.840271,260.559113 318.604828,260.221161 322.645782,259.989929 
	C327.661987,264.760529 332.395294,269.371735 337.252899,274.184113 
	C337.817566,274.256165 338.257904,274.127045 338.758545,273.536957 
	C338.903046,268.714996 338.987244,264.353973 339.532288,259.994415 
	C344.605255,259.998596 349.217407,260.001343 353.829529,260.004089 
z"/>
<path fill="#4D4CA8" opacity="1.000000" stroke="none" 
	d="
M164.286346,193.112488 
	C156.083374,192.844315 147.880402,192.576141 139.314285,192.101837 
	C149.850815,186.103653 158.924164,178.026871 167.335739,169.136826 
	C168.455307,167.953583 169.355087,166.562378 170.643768,165.085083 
	C172.787445,165.600510 174.596558,166.679657 176.510361,166.917984 
	C180.687057,167.438095 184.916992,167.530579 189.373138,168.182083 
	C187.002258,170.587769 184.383423,172.609146 181.031357,175.196503 
	C188.603500,182.727982 194.792648,188.883881 200.772278,195.356201 
	C198.873123,196.114014 197.198898,196.849396 195.490799,196.938950 
	C191.209122,197.163422 186.912109,197.095505 182.341949,196.983139 
	C179.053741,193.145096 176.044830,189.468796 173.035919,185.792496 
	C172.534378,186.277435 172.032852,186.762360 171.531311,187.247299 
	C169.116333,189.202362 166.701340,191.157425 164.286346,193.112488 
z"/>
<path fill="#2F4DA5" opacity="1.000000" stroke="none" 
	d="
M377.833344,65.003075 
	C375.521576,74.942833 381.887115,84.897133 395.769653,87.535591 
	C395.769653,92.416496 395.769653,97.342461 395.769653,102.238518 
	C380.084198,105.194366 359.144806,88.405876 362.046722,65.229103 
	C367.834900,64.982872 372.834137,64.992973 377.833344,65.003075 
z"/>
<path fill="#2F4DA5" opacity="1.000000" stroke="none" 
	d="
M314.108978,62.467957 
	C319.089478,62.336056 324.008820,62.669113 329.379913,63.002651 
	C329.831635,75.449684 329.831635,87.896240 329.831635,100.670998 
	C324.615173,100.670998 319.705383,100.670998 314.047852,100.670998 
	C314.047852,88.086006 314.047852,75.509460 314.108978,62.467957 
z"/>
<path fill="#254EA4" opacity="1.000000" stroke="none" 
	d="
M377.914062,64.645157 
	C372.834137,64.992973 367.834900,64.982872 362.362183,64.964676 
	C362.580139,47.923264 379.488190,33.628609 395.673706,35.476719 
	C395.673706,40.343990 395.673706,45.254559 395.673706,50.566143 
	C386.976562,51.354763 381.007843,55.969494 377.914062,64.645157 
z"/>
<path fill="#384DA6" opacity="1.000000" stroke="none" 
	d="
M44.895248,128.544342 
	C39.913830,129.008591 34.997715,129.007370 29.626329,129.007355 
	C29.129208,118.317238 29.087358,107.625908 29.562204,96.468903 
	C34.996384,96.003525 39.913872,96.003807 44.831356,96.004082 
	C44.874420,106.695679 44.917484,117.387276 44.895248,128.544342 
z"/>
<path fill="#2F4DA5" opacity="1.000000" stroke="none" 
	d="
M44.894947,95.538910 
	C39.913872,96.003807 34.996384,96.003525 29.623436,96.004105 
	C29.127548,85.315269 29.087120,74.625572 29.500181,63.567162 
	C34.913078,63.134247 39.872490,63.070049 44.831902,63.005856 
	C44.874115,73.695152 44.916328,84.384445 44.894947,95.538910 
z"/>
<path fill="#7349AB" opacity="1.000000" stroke="none" 
	d="
M337.686523,295.683716 
	C341.008850,295.108856 344.329956,294.526703 347.653992,293.962006 
	C349.439545,293.658661 351.230164,293.385254 353.425079,293.050873 
	C353.877167,304.027527 353.922699,315.051636 353.899780,326.540253 
	C349.219421,327.001068 344.607422,326.997345 339.463623,326.528625 
	C338.829651,317.050629 338.727478,308.037598 338.693542,298.729828 
	C338.403381,297.517975 338.044952,296.600861 337.686523,295.683716 
z"/>
<path fill="#564CA9" opacity="1.000000" stroke="none" 
	d="
M323.999146,207.943756 
	C325.418671,207.301559 326.831696,206.119263 328.258789,206.101990 
	C340.495026,205.953888 352.734314,205.964249 364.971191,206.082642 
	C366.497589,206.097382 368.015228,207.017517 369.793823,207.814163 
	C366.008942,209.073868 362.009644,210.407364 357.911194,210.878662 
	C354.887634,211.226334 353.898132,212.332413 353.967468,215.193390 
	C354.079559,219.817474 353.975098,224.446793 353.440887,229.537598 
	C348.299683,229.999252 343.679657,229.997208 338.989197,229.533249 
	C338.820129,224.052170 338.721527,219.033035 338.684235,213.633041 
	C337.606750,212.433975 336.578583,211.255692 335.308289,210.865448 
	C331.590271,209.723236 327.775818,208.895004 323.999146,207.943756 
z"/>
<path fill="#4D4CA8" opacity="1.000000" stroke="none" 
	d="
M315.922974,187.658051 
	C310.445648,188.213455 304.789459,188.481491 299.132538,188.732895 
	C297.531189,188.804077 295.927673,188.826691 293.674500,188.851608 
	C286.979218,182.897980 280.934631,176.964310 274.750183,170.747177 
	C273.598328,169.377335 272.586273,168.290939 271.574219,167.204544 
	C278.436005,167.129181 285.297760,167.053802 292.635498,166.972046 
	C299.955627,173.353867 306.791168,179.751389 313.659668,186.113327 
	C314.241486,186.652237 315.043884,186.952988 315.922974,187.658051 
z"/>
<path fill="#2F4DA5" opacity="1.000000" stroke="none" 
	d="
M494.639221,78.042603 
	C498.334442,78.556999 501.712921,79.379463 505.138184,79.884583 
	C506.854248,80.137650 508.655640,79.812302 510.737305,79.924828 
	C506.727478,93.727661 492.344208,104.048294 479.325928,102.596275 
	C479.325928,97.732849 479.325928,92.822746 479.325928,87.573494 
	C485.042511,85.867676 491.284210,84.524826 494.639221,78.042603 
z"/>
<path fill="#254EA4" opacity="1.000000" stroke="none" 
	d="
M511.068054,57.583748 
	C505.605896,57.908562 500.098541,57.859138 494.268097,57.954353 
	C489.476379,55.242271 485.007782,52.385555 479.385803,48.791500 
	C479.385803,45.689171 479.385803,40.648495 479.385803,35.632389 
	C492.244080,32.832745 508.488953,45.842667 511.068054,57.583748 
z"/>
<path fill="#604BA9" opacity="1.000000" stroke="none" 
	d="
M339.059631,229.995178 
	C343.679657,229.997208 348.299683,229.999252 353.374481,230.001556 
	C353.874115,239.692795 353.918945,249.383789 353.896667,259.539429 
	C349.217407,260.001343 344.605255,259.998596 339.463501,259.530762 
	C338.830109,251.716095 338.726318,244.366531 338.698242,236.582993 
	C338.869171,234.097733 338.964417,232.046448 339.059631,229.995178 
z"/>
<path fill="#254EA4" opacity="1.000000" stroke="none" 
	d="
M44.895050,62.540504 
	C39.872490,63.070049 34.913078,63.134247 29.561253,63.102425 
	C29.127661,54.981148 29.086487,46.955883 29.106571,38.465454 
	C34.123215,37.969032 39.078602,37.937782 44.433640,37.953224 
	C44.874928,46.024998 44.916565,54.050076 44.895050,62.540504 
z"/>
<path fill="#7849AB" opacity="1.000000" stroke="none" 
	d="
M495.962524,336.646362 
	C492.252533,337.306427 488.404083,337.819916 484.541595,337.968048 
	C481.573883,338.081879 479.893494,339.130890 479.974182,342.692261 
	C476.142853,339.414154 472.375366,335.669952 468.494659,332.047089 
	C466.332336,330.028473 466.879852,328.491699 468.781586,326.669434 
	C471.660309,323.910919 474.352356,320.957611 477.485321,317.712555 
	C483.754944,324.083862 489.786469,330.213226 495.962524,336.646362 
z"/>
<path fill="#564CA9" opacity="1.000000" stroke="none" 
	d="
M372.295074,207.843475 
	C372.254608,207.635132 372.471222,207.460709 372.887421,207.209045 
	C373.011932,207.443909 372.833649,207.692444 372.295074,207.843475 
z"/>
<path fill="#9448AE" opacity="1.000000" stroke="none" 
	d="
M268.095551,434.253784 
	C266.244904,433.506897 264.421295,432.209167 262.538483,432.116669 
	C256.954681,431.842377 251.347504,432.043152 245.009003,431.910034 
	C243.208588,430.829285 242.148651,429.896698 240.904434,428.670410 
	C235.255447,424.058258 228.975586,422.732422 222.113007,422.740631 
	C160.244537,422.814697 98.375946,422.781403 36.507397,422.784973 
	C29.314049,422.785400 29.314049,422.800476 29.786312,430.428833 
	C29.753397,433.241791 29.806221,435.616516 29.771774,438.386169 
	C29.743668,439.850861 29.802835,440.920593 29.745808,442.235168 
	C29.576149,442.652588 29.522682,442.825195 29.469217,442.997772 
	C24.631468,443.267944 19.793718,443.538116 14.562787,443.906189 
	C14.124193,434.979706 14.078781,425.955322 14.558333,416.466248 
	C90.143852,416.001038 165.204422,416.011627 240.264938,415.953247 
	C242.858246,415.951202 245.451035,415.259216 248.044067,414.888794 
	C251.135422,417.336182 254.226791,419.783569 257.445618,422.331848 
	C265.953064,411.928711 277.408325,407.035767 290.972412,407.026581 
	C358.439148,406.980835 425.905945,407.005737 493.372711,407.005798 
	C495.349335,407.005798 497.325958,407.005798 499.974030,407.005798 
	C499.974030,418.898102 499.974030,430.487885 499.902222,442.541718 
	C495.228943,443.004211 490.627472,443.002655 485.472473,442.752563 
	C484.856476,442.337769 484.793976,442.171509 484.799194,441.591980 
	C484.821838,439.786072 484.776825,438.393494 484.798492,436.576660 
	C484.820557,434.438019 484.775909,432.723602 484.798462,430.566498 
	C484.975861,422.791718 484.975861,422.784424 477.717651,422.783722 
	C446.736847,422.780701 415.756012,422.781952 384.775208,422.782501 
	C353.627838,422.783020 322.480347,422.822449 291.333130,422.756927 
	C284.241425,422.742004 277.784027,424.147644 272.374146,429.621277 
	C270.767273,431.293335 269.431427,432.773560 268.095551,434.253784 
z"/>
<path fill="#9246AD" opacity="1.000000" stroke="none" 
	d="
M247.894135,414.574738 
	C245.451035,415.259216 242.858246,415.951202 240.264938,415.953247 
	C165.204422,416.011627 90.143852,416.001038 14.625319,416.001984 
	C14.167340,413.206451 14.167340,410.410492 14.167340,407.000916 
	C16.285349,407.000916 18.224443,407.000916 20.163540,407.000916 
	C88.202538,407.000977 156.241531,406.996887 224.280533,407.006409 
	C232.838165,407.007599 240.705688,409.310974 247.894135,414.574738 
z"/>
<path fill="#FEFCFE" opacity="1.000000" stroke="none" 
	d="
M16.503395,493.423126 
	C16.488256,489.838593 16.488256,486.696320 16.488256,483.180664 
	C177.066574,483.180664 337.170807,483.180664 497.987152,483.180664 
	C497.987152,486.209259 497.987152,489.149078 498.055054,492.541718 
	C497.939880,494.444336 497.756775,495.894165 497.513702,497.818634 
	C495.533661,497.818634 493.733673,497.818634 491.933685,497.818634 
	C335.474609,497.818604 179.015533,497.821747 22.556459,497.793488 
	C19.812891,497.792969 16.024944,499.011017 16.503395,493.423126 
z"/>
<path fill="#7349AB" opacity="1.000000" stroke="none" 
	d="
M44.830658,325.006012 
	C39.872711,325.273529 34.914764,325.541016 29.562918,325.906738 
	C29.127388,313.648804 29.085756,301.292725 29.520695,288.477417 
	C34.941509,288.014526 39.885757,288.010803 44.893578,288.471405 
	C44.914982,300.959167 44.872818,312.982574 44.830658,325.006012 
z"/>
<path fill="#544BA8" opacity="1.000000" stroke="none" 
	d="
M29.106735,192.467285 
	C34.088505,191.669037 39.007324,191.335587 44.441139,191.467316 
	C44.913967,202.623749 44.871792,213.315018 44.373955,224.005463 
	C39.002731,224.004669 34.087162,224.004684 29.171597,224.004700 
	C29.128994,213.647171 29.086390,203.289627 29.106735,192.467285 
z"/>
<path fill="#6A4AAA" opacity="1.000000" stroke="none" 
	d="
M44.830002,288.007080 
	C39.885757,288.010803 34.941509,288.014526 29.584377,288.013092 
	C29.129494,277.650787 29.087494,267.293610 29.564026,256.471100 
	C34.997673,256.006042 39.912788,256.006348 44.891220,256.471008 
	C44.913029,267.292633 44.871513,277.649841 44.830002,288.007080 
z"/>
<path fill="#604BA9" opacity="1.000000" stroke="none" 
	d="
M44.827904,256.006653 
	C39.912788,256.006348 34.997673,256.006042 29.627396,256.006714 
	C29.130657,245.649918 29.089081,235.292099 29.109550,224.469498 
	C34.087162,224.004684 39.002731,224.004669 44.435970,224.470093 
	C44.911732,235.292587 44.869816,245.649612 44.827904,256.006653 
z"/>
<path fill="#BFF4F4" opacity="1.000000" stroke="none" 
	d="
M484.738953,456.024780 
	C484.738953,459.671997 484.738953,463.319214 484.738953,467.400269 
	C411.544159,467.400269 338.521423,467.400269 264.873291,467.400269 
	C264.873291,463.801880 264.873291,460.361084 265.414734,456.461792 
	C338.883759,456.010468 411.811371,456.017609 484.738953,456.024780 
z"/>
<path fill="#BFF4F4" opacity="1.000000" stroke="none" 
	d="
M249.526932,457.029938 
	C250.348129,467.835754 250.348129,467.835785 239.611481,467.835785 
	C172.804535,467.835785 105.997536,467.875397 39.190678,467.794159 
	C28.880507,467.781616 29.391497,470.137756 30.248425,457.450256 
	C103.723434,457.008087 176.625183,457.019012 249.526932,457.029938 
z"/>
<path fill="#B7EAF2" opacity="1.000000" stroke="none" 
	d="
M484.811432,455.583923 
	C411.811371,456.017609 338.883759,456.010468 265.488953,456.005615 
	C264.970062,453.633789 264.918335,451.259674 265.411316,448.444580 
	C338.884277,448.007233 411.812531,448.010895 484.740814,448.014587 
	C484.788513,450.390747 484.836212,452.766937 484.811432,455.583923 
z"/>
<path fill="#A8E0F3" opacity="1.000000" stroke="none" 
	d="
M241.088715,428.964111 
	C242.148651,429.896698 243.208588,430.829285 244.527100,431.923004 
	C245.707611,433.847534 246.629562,435.610931 247.185577,437.689972 
	C174.499451,438.000824 102.179245,437.996002 29.859047,437.991211 
	C29.806221,435.616516 29.753397,433.241791 30.264507,430.431305 
	C96.613632,429.997437 162.398834,430.018738 228.183960,429.956696 
	C232.485855,429.952637 236.787140,429.309814 241.088715,428.964111 
z"/>
<path fill="#B8EEF4" opacity="1.000000" stroke="none" 
	d="
M249.613205,456.606506 
	C176.625183,457.019012 103.723434,457.008087 30.343475,456.996643 
	C29.801090,455.276520 29.736908,453.556915 30.245134,451.416595 
	C103.722404,451.004181 176.627274,451.012421 249.532135,451.020660 
	C249.587921,452.741455 249.643692,454.462280 249.613205,456.606506 
z"/>
<path fill="#B0E7F3" opacity="1.000000" stroke="none" 
	d="
M484.807831,447.600098 
	C411.812531,448.010895 338.884277,448.007233 265.488800,448.005676 
	C265.027771,446.291718 265.033936,444.575653 265.560608,442.432068 
	C338.964569,442.004822 411.848022,442.005035 484.731506,442.005249 
	C484.793976,442.171509 484.856476,442.337769 485.014038,442.752960 
	C485.031006,444.396454 484.952942,445.791016 484.807831,447.600098 
z"/>
<path fill="#A8E0F3" opacity="1.000000" stroke="none" 
	d="
M484.731262,431.009216 
	C484.775909,432.723602 484.820557,434.438019 484.347534,436.577332 
	C411.616394,437.005707 339.402893,437.009216 267.189392,437.012726 
	C267.454468,436.284332 267.719574,435.555939 268.040100,434.540649 
	C269.431427,432.773560 270.767273,431.293335 272.735229,429.893127 
	C275.965210,430.315430 278.562836,430.954407 281.160950,430.956604 
	C349.017700,431.014374 416.874481,431.006134 484.731262,431.009216 
z"/>
<path fill="#B7EAF2" opacity="1.000000" stroke="none" 
	d="
M249.615128,450.655518 
	C176.627274,451.012421 103.722404,451.004181 30.338856,450.994751 
	C29.800339,449.604156 29.740507,448.214752 30.251194,446.414551 
	C66.752892,446.003265 102.684074,446.019104 138.615250,445.997589 
	C175.543747,445.975494 212.472229,445.916992 249.400711,445.874420 
	C249.499847,447.346405 249.598984,448.818359 249.615128,450.655518 
z"/>
<path fill="#ACE4F3" opacity="1.000000" stroke="none" 
	d="
M266.978058,437.284729 
	C339.402893,437.009216 411.616394,437.005707 484.280823,437.001556 
	C484.776825,438.393494 484.821838,439.786072 484.799194,441.591980 
	C411.848022,442.005035 338.964569,442.004822 265.623291,442.006683 
	C265.699249,440.524750 266.232971,439.040710 266.978058,437.284729 
z"/>
<path fill="#B0E7F3" opacity="1.000000" stroke="none" 
	d="
M249.433899,445.481995 
	C212.472229,445.916992 175.543747,445.975494 138.615250,445.997589 
	C102.684074,446.019104 66.752892,446.003265 30.344168,446.005432 
	C29.758823,445.256195 29.651024,444.505280 29.506222,443.376099 
	C29.522682,442.825195 29.576149,442.652588 30.224537,442.237335 
	C103.504532,441.998871 176.189590,442.003082 248.874664,442.007294 
	C249.072144,443.034729 249.269608,444.062134 249.433899,445.481995 
z"/>
<path fill="#ACE4F3" opacity="1.000000" stroke="none" 
	d="
M248.885208,441.655792 
	C176.189590,442.003082 103.504532,441.998871 30.340733,441.992493 
	C29.802835,440.920593 29.743668,439.850861 29.771774,438.386169 
	C102.179245,437.996002 174.499451,438.000824 247.269806,438.007141 
	C248.111893,439.107239 248.503830,440.205750 248.885208,441.655792 
z"/>
<path fill="#000000" opacity="1.000000" stroke="none" 
	d="
M44.891220,256.471008 
	C44.869816,245.649612 44.911732,235.292587 44.891632,224.470917 
	C44.871792,213.315018 44.913967,202.623749 44.893154,191.467728 
	C44.830170,184.952866 44.830170,178.902756 44.830170,172.852661 
	C45.372887,172.563583 45.915600,172.274506 46.458317,171.985428 
	C52.752876,178.595123 59.047436,185.204803 65.651886,191.963470 
	C76.499809,202.671478 89.167557,209.030548 103.948097,210.912155 
	C106.877556,211.285065 108.099625,212.131195 108.032204,215.114548 
	C107.912003,220.432709 108.021614,225.756058 108.042862,232.006561 
	C108.091225,249.292297 108.131851,265.648712 108.109848,282.469879 
	C108.089851,292.290588 108.132477,301.646545 108.109253,311.466919 
	C108.084961,319.288940 108.126541,326.646545 108.168121,334.004181 
	C108.168114,337.788849 108.168114,341.573486 108.168114,345.676697 
	C86.974983,345.676697 66.325645,345.676697 44.958706,345.676697 
	C44.958706,339.078949 44.958706,332.506805 44.894684,325.470337 
	C44.872818,312.982574 44.914982,300.959167 44.893574,288.471405 
	C44.871513,277.649841 44.913029,267.292633 44.891220,256.471008 
z"/>
<path fill="#EFC3FE" opacity="1.000000" stroke="none" 
	d="
M205.057907,332.814209 
	C209.030685,336.983917 213.003464,341.153656 217.793030,346.180664 
	C215.382919,346.416351 213.903625,346.678894 212.423080,346.686218 
	C204.139359,346.727325 195.849548,346.525177 187.574020,346.788940 
	C183.812500,346.908844 180.955704,346.012848 178.559708,343.042236 
	C176.084229,339.973053 173.293533,337.158142 170.189423,333.781036 
	C163.871506,327.319763 158.004898,321.309448 152.665146,315.249756 
	C164.253372,315.088379 175.314758,314.976349 186.657410,315.022156 
	C192.978424,321.058075 199.018173,326.936157 205.057907,332.814209 
z"/>
<path fill="#EEC1FC" opacity="1.000000" stroke="none" 
	d="
M316.641174,331.126221 
	C321.275635,335.972290 325.910126,340.818329 331.467438,346.629364 
	C319.253052,346.629364 308.357849,346.726379 297.469147,346.505219 
	C296.124237,346.477905 294.662048,344.911011 293.512360,343.792267 
	C286.844971,337.304230 280.254913,330.736694 273.181091,323.749664 
	C270.835632,321.197327 268.947723,319.091370 267.524536,316.989136 
	C276.288879,316.993927 284.591980,317.127838 292.885986,316.911957 
	C295.252136,316.850372 297.591858,315.773560 300.234192,315.314026 
	C305.896820,320.685913 311.269012,325.906067 316.641174,331.126221 
z"/>
<path fill="#EFC3FE" opacity="1.000000" stroke="none" 
	d="
M256.919128,328.026794 
	C262.960571,333.409515 269.002014,338.792267 275.043488,344.174988 
	C274.575073,344.842468 274.106659,345.509918 273.638245,346.177399 
	C272.452850,346.352905 271.271851,346.630127 270.081146,346.681122 
	C268.095520,346.766052 266.103546,346.722137 264.114502,346.704376 
	C256.164764,346.633423 247.398636,348.614960 240.498642,345.884521 
	C233.806641,343.236420 229.031555,335.744141 222.962570,329.926758 
	C219.282547,326.089111 216.054581,322.704010 213.119476,319.040527 
	C215.594681,318.176636 217.760315,317.174042 219.962570,317.085907 
	C225.918625,316.847473 231.896820,317.152466 237.851562,316.898163 
	C239.602127,316.823395 241.303650,315.600586 243.327225,315.057007 
	C248.057571,319.482300 252.488327,323.754578 256.919128,328.026794 
z"/>
<path fill="#EEC1FC" opacity="1.000000" stroke="none" 
	d="
M150.753265,335.083008 
	C153.984665,338.555237 157.216080,342.027466 161.578705,346.715240 
	C155.831161,346.715240 151.585648,346.715485 147.340134,346.715210 
	C141.186722,346.714813 135.021835,346.485260 128.883850,346.792755 
	C124.683075,347.003204 123.124207,345.493713 123.596878,341.389252 
	C123.804153,339.589355 123.562370,337.737732 123.523468,335.005005 
	C123.462410,326.739471 123.402367,319.378601 123.461235,311.726288 
	C124.300964,311.125122 125.262665,310.362976 125.695763,310.593567 
	C126.827614,311.196228 127.728256,312.233124 128.884247,313.396790 
	C136.282700,320.825500 143.517975,327.954254 150.753265,335.083008 
z"/>
<path fill="#7349AB" opacity="1.000000" stroke="none" 
	d="
M257.329712,327.932190 
	C252.488327,323.754578 248.057571,319.482300 243.183777,314.759460 
	C236.186356,307.859894 229.631973,301.410980 222.969147,294.698914 
	C222.550079,293.964813 222.239441,293.493896 222.339050,292.928833 
	C226.048645,292.548828 229.343658,292.120697 232.648621,292.020416 
	C235.487640,291.934235 237.056931,290.846680 237.344910,288.024353 
	C240.194504,290.519989 242.735031,292.882202 245.468567,295.540039 
	C252.794296,302.885590 259.927063,309.935516 267.059814,316.985443 
	C268.947723,319.091370 270.835632,321.197327 272.880432,323.598297 
	C271.210815,324.924866 269.491852,326.447418 267.533325,326.876434 
	C264.351471,327.573364 261.012787,327.554352 257.329712,327.932190 
z"/>
<path fill="#7349AB" opacity="1.000000" stroke="none" 
	d="
M317.133026,331.102783 
	C311.269012,325.906067 305.896820,320.685913 300.073883,315.016968 
	C294.290314,309.089478 288.957520,303.610779 284.117920,298.107330 
	C288.359161,298.053894 292.126190,298.240295 295.847900,297.912231 
	C297.932404,297.728516 299.941833,296.692474 302.270630,296.172180 
	C304.046295,297.649353 305.536377,298.994843 307.216309,300.645874 
	C316.840149,310.524139 326.274170,320.096863 335.708191,329.669556 
	C329.680420,330.139496 323.652649,330.609406 317.133026,331.102783 
z"/>
<path fill="#7849AB" opacity="1.000000" stroke="none" 
	d="
M212.826599,319.318878 
	C216.054581,322.704010 219.282547,326.089111 222.666107,329.764648 
	C218.907455,330.370819 214.984634,330.608246 211.082703,331.036194 
	C209.197479,331.243011 207.351547,331.807922 205.272858,332.512451 
	C199.018173,326.936157 192.978424,321.058075 186.487549,314.722656 
	C183.416687,311.496582 180.796982,308.727844 178.572296,305.868713 
	C182.880508,305.518402 186.812149,305.408905 190.698669,304.931824 
	C192.499710,304.710785 194.212891,303.773926 196.255890,303.312195 
	C201.972794,308.748169 207.399689,314.033508 212.826599,319.318878 
z"/>
<path fill="#E8C1FF" opacity="1.000000" stroke="none" 
	d="
M335.936523,329.803528 
	C326.274170,320.096863 316.840149,310.524139 307.690918,300.525421 
	C318.192230,299.741119 328.408783,299.382843 338.625305,299.024536 
	C338.727478,308.037598 338.829651,317.050629 339.002960,326.526672 
	C338.980804,328.058197 338.887512,329.126678 338.537750,330.598511 
	C338.281281,331.001831 337.921722,331.042938 337.921722,331.042938 
	C337.336090,330.674469 336.750458,330.306000 335.936523,329.803528 
z"/>
<path fill="#7849AB" opacity="1.000000" stroke="none" 
	d="
M151.237625,335.067627 
	C143.517975,327.954254 136.282700,320.825500 129.371063,313.378723 
	C136.163177,313.029694 142.631638,312.998657 149.356735,313.077332 
	C150.455017,313.891113 151.296646,314.595123 152.138290,315.299133 
	C158.004898,321.309448 163.871506,327.319763 169.885986,333.626587 
	C163.929886,334.299469 157.825943,334.675842 151.237625,335.067627 
z"/>
<path fill="#7849AB" opacity="1.000000" stroke="none" 
	d="
M123.342316,312.017700 
	C123.402367,319.378601 123.462410,326.739471 123.409195,334.558105 
	C118.515656,334.743073 113.735374,334.470276 108.561607,334.100830 
	C108.126541,326.646545 108.084961,319.288940 108.502220,311.564209 
	C113.754807,311.470673 118.548561,311.744171 123.342316,312.017700 
z"/>
<path fill="#DFBDFE" opacity="1.000000" stroke="none" 
	d="
M337.999420,331.195435 
	C337.921722,331.042938 338.281281,331.001831 338.462036,330.994080 
	C338.454254,331.106873 338.265686,331.227417 337.999420,331.195435 
z"/>
<path fill="#B6B0FF" opacity="1.000000" stroke="none" 
	d="
M200.981796,195.039795 
	C194.792648,188.883881 188.603500,182.727982 181.031357,175.196503 
	C184.383423,172.609146 187.002258,170.587769 189.775696,168.274231 
	C193.476868,165.275818 197.023438,162.569534 200.981247,159.549438 
	C204.611816,163.060028 208.032440,166.367615 211.896820,170.126587 
	C219.643311,178.022812 226.946045,185.467636 233.763336,192.928986 
	C224.888611,192.964905 216.494980,192.843292 208.113144,193.103149 
	C206.025986,193.167862 203.977020,194.464401 201.678772,195.153259 
	C201.447052,195.111771 200.981796,195.039795 200.981796,195.039795 
z"/>
<path fill="#AEACFD" opacity="1.000000" stroke="none" 
	d="
M271.281708,167.067139 
	C272.586273,168.290939 273.598328,169.377335 274.288940,170.742645 
	C261.119659,171.390427 248.271851,171.759262 235.168549,171.996979 
	C233.760406,170.868958 232.607773,169.872055 231.455154,168.875137 
	C226.662140,163.882278 221.869125,158.889420 216.426010,153.219330 
	C237.566269,148.953659 255.532944,152.923050 271.281708,167.067139 
z"/>
<path fill="#4D4CA8" opacity="1.000000" stroke="none" 
	d="
M230.955597,168.897903 
	C232.607773,169.872055 233.760406,170.868958 235.360199,172.296082 
	C243.366882,180.241150 250.926392,187.755981 258.650574,195.536392 
	C259.614624,196.756683 260.413971,197.711395 260.915985,198.944489 
	C257.787689,199.814728 254.954147,200.394760 252.126480,201.002014 
	C249.620712,201.540131 247.121460,202.108521 244.341431,202.461594 
	C240.791946,199.143906 237.520355,196.028183 234.248779,192.912476 
	C226.946045,185.467636 219.643311,178.022812 212.193451,170.280640 
	C218.182892,169.629105 224.319473,169.274887 230.955597,168.897903 
z"/>
<path fill="#654BAA" opacity="1.000000" stroke="none" 
	d="
M108.172478,282.005157 
	C108.131851,265.648712 108.091225,249.292297 108.111450,232.470947 
	C113.307091,231.952118 118.441872,231.898239 124.334724,231.947876 
	C126.008057,232.803146 126.923317,233.554886 127.999512,234.589828 
	C135.044342,241.681152 141.928253,248.489288 148.974640,255.582748 
	C155.077057,261.968872 161.016998,268.069641 166.740051,274.474152 
	C163.470673,275.187012 160.406586,275.525848 157.369263,276.026917 
	C154.815323,276.448273 152.292526,277.058380 149.465851,277.393585 
	C141.077545,269.200409 132.979309,261.198639 124.881073,253.196838 
	C124.414474,253.368622 123.947876,253.540390 123.481277,253.712158 
	C123.481277,263.138000 123.481277,272.563873 123.047462,281.990112 
	C117.799927,281.995422 112.986198,282.000275 108.172478,282.005157 
z"/>
<path fill="#C8B6FE" opacity="1.000000" stroke="none" 
	d="
M169.048538,219.888443 
	C166.476059,217.104523 163.903580,214.320618 161.388214,210.926300 
	C163.291946,209.878525 165.130371,209.109711 166.986649,209.063904 
	C173.387344,208.905975 179.797943,209.122177 186.196609,208.927521 
	C188.220764,208.865936 190.219330,207.963364 192.518066,207.637863 
	C199.965958,215.039719 207.125397,222.249390 213.928833,229.726227 
	C211.639053,230.328659 209.710098,230.916138 207.770645,230.953110 
	C201.287125,231.076645 194.795181,230.868347 188.317078,231.093109 
	C186.533142,231.154984 184.786270,232.284271 182.725464,232.778198 
	C177.968552,228.384567 173.508545,224.136505 169.048538,219.888443 
z"/>
<path fill="#604BA9" opacity="1.000000" stroke="none" 
	d="
M168.988693,220.276901 
	C173.508545,224.136505 177.968552,228.384567 182.879333,233.076477 
	C189.978287,240.082245 196.626495,246.644150 203.430557,253.499329 
	C203.818985,254.167465 204.051529,254.542358 203.963470,255.156769 
	C198.063385,256.275024 192.483887,257.153778 186.610413,257.882507 
	C184.016251,255.549683 181.716064,253.366852 179.247162,250.922638 
	C172.245102,243.879486 165.411743,237.097733 158.397888,230.069595 
	C157.014603,228.490356 155.811813,227.157486 154.609024,225.824615 
	C157.523148,225.213562 160.521378,224.851990 163.323044,223.907379 
	C165.328079,223.231354 167.069702,221.774078 168.988693,220.276901 
z"/>
<path fill="#C8B6FE" opacity="1.000000" stroke="none" 
	d="
M154.320374,225.624023 
	C155.811813,227.157486 157.014603,228.490356 158.009369,230.342804 
	C156.050842,231.239639 154.307053,231.900955 152.548630,231.942413 
	C146.589142,232.082962 140.613281,231.795532 134.667374,232.114059 
	C132.358597,232.237732 130.112976,233.540817 127.838585,234.306641 
	C126.923317,233.554886 126.008057,232.803146 124.836067,231.907623 
	C124.049324,230.134583 123.126915,228.520676 123.062294,226.873123 
	C122.862427,221.776917 122.989296,216.667877 122.989296,211.607483 
	C127.316597,210.748566 131.011932,209.760529 134.767914,209.394180 
	C136.281082,209.246582 138.299408,210.059448 139.448242,211.124863 
	C144.438065,215.752319 149.192047,220.634079 154.320374,225.624023 
z"/>
<path fill="#BFB2FD" opacity="1.000000" stroke="none" 
	d="
M192.229614,207.445648 
	C190.219330,207.963364 188.220764,208.865936 186.196609,208.927521 
	C179.797943,209.122177 173.387344,208.905975 166.986649,209.063904 
	C165.130371,209.109711 163.291946,209.878525 161.234406,210.630203 
	C158.198120,208.259567 155.372757,205.574631 152.300018,202.654602 
	C156.459000,199.449112 160.190521,196.573074 164.104187,193.404755 
	C166.701340,191.157425 169.116333,189.202362 171.531311,187.247299 
	C172.032852,186.762360 172.534378,186.277435 173.035919,185.792496 
	C176.044830,189.468796 179.053741,193.145096 182.514862,197.281158 
	C186.054581,200.975830 189.142105,204.210739 192.229614,207.445648 
z"/>
<path fill="#BFB2FD" opacity="1.000000" stroke="none" 
	d="
M261.213318,198.666122 
	C260.413971,197.711395 259.614624,196.756683 259.072144,195.360870 
	C261.788666,194.612946 264.245575,194.069092 266.708496,194.040390 
	C277.203003,193.917999 287.699249,193.947983 298.194885,193.922363 
	C306.549347,198.586243 314.903809,203.250107 323.628723,207.928864 
	C327.775818,208.895004 331.590271,209.723236 335.308289,210.865448 
	C336.578583,211.255692 337.606750,212.433975 338.240570,213.632095 
	C320.298187,214.007980 302.860352,213.943787 285.424011,214.077713 
	C283.295349,214.094070 281.174835,215.174088 278.767090,215.606262 
	C272.726837,209.856277 266.970093,204.261200 261.213318,198.666122 
z"/>
<path fill="#B6B0FF" opacity="1.000000" stroke="none" 
	d="
M298.020630,193.640594 
	C287.699249,193.947983 277.203003,193.917999 266.708496,194.040390 
	C264.245575,194.069092 261.788666,194.612946 258.907471,195.095306 
	C250.926392,187.755981 243.366882,180.241150 235.615707,172.427216 
	C248.271851,171.759262 261.119659,171.390427 274.428741,171.026108 
	C280.934631,176.964310 286.979218,182.897980 293.297729,188.993713 
	C294.996552,190.556793 296.421448,191.957825 298.020630,193.640594 
z"/>
<path fill="#CEB7FE" opacity="1.000000" stroke="none" 
	d="
M338.622498,237.016983 
	C338.726318,244.366531 338.830109,251.716095 339.002686,259.529297 
	C338.987244,264.353973 338.903046,268.714996 338.496887,273.526031 
	C337.826172,273.978363 337.477356,273.980652 337.128571,273.982941 
	C332.395294,269.371735 327.661987,264.760529 322.471405,259.695740 
	C314.759857,251.813400 307.505585,244.384644 300.703339,236.965454 
	C313.644379,236.989029 326.133453,237.003006 338.622498,237.016983 
z"/>
<path fill="#DFBDFE" opacity="1.000000" stroke="none" 
	d="
M338.693542,298.729797 
	C328.408783,299.382843 318.192230,299.741119 307.501099,300.219849 
	C305.536377,298.994843 304.046295,297.649353 302.112610,295.869446 
	C296.807922,290.452423 291.946808,285.469849 287.544800,280.342651 
	C299.084900,280.098663 310.165924,279.999359 321.246918,279.900055 
	C326.535736,285.029266 331.824554,290.158447 337.399963,295.485687 
	C338.044952,296.600861 338.403381,297.517975 338.693542,298.729797 
z"/>
<path fill="#D7BBFF" opacity="1.000000" stroke="none" 
	d="
M321.085419,279.600830 
	C310.165924,279.999359 299.084900,280.098663 287.286682,280.171387 
	C280.679169,274.160645 274.788849,268.176483 269.156036,261.888702 
	C270.930420,261.062531 272.454285,260.071289 273.962921,260.093933 
	C283.393646,260.235626 292.820953,260.603821 302.515259,261.027130 
	C303.388611,261.653534 303.996063,262.149780 304.603546,262.646057 
	C310.043671,268.197906 315.483795,273.749756 321.085419,279.600830 
z"/>
<path fill="#604BA9" opacity="1.000000" stroke="none" 
	d="
M304.966705,262.370178 
	C303.996063,262.149780 303.388611,261.653534 302.354462,260.727600 
	C294.698059,253.166046 287.468353,246.034164 280.080261,238.605499 
	C277.970856,236.198776 276.019775,234.088852 274.531250,231.981323 
	C276.979919,231.988724 279.007355,232.252731 280.943329,231.943710 
	C284.725433,231.339996 288.456421,230.416077 292.502869,229.794739 
	C295.281891,232.295105 297.766632,234.625488 300.251343,236.955872 
	C307.505585,244.384644 314.759857,251.813400 322.188477,259.536316 
	C318.604828,260.221161 314.840271,260.559113 311.091461,261.024292 
	C309.156464,261.264374 307.249512,261.730347 304.966705,262.370178 
z"/>
<path fill="#BFB2FD" opacity="1.000000" stroke="none" 
	d="
M337.252899,274.184113 
	C337.477356,273.980652 337.826172,273.978363 338.436584,273.987000 
	C338.257904,274.127045 337.817566,274.256165 337.252899,274.184113 
z"/>
<path fill="#564CA9" opacity="1.000000" stroke="none" 
	d="
M192.518066,207.637848 
	C189.142105,204.210739 186.054581,200.975830 182.794159,197.442902 
	C186.912109,197.095505 191.209122,197.163422 195.490799,196.938950 
	C197.198898,196.849396 198.873123,196.114014 200.772278,195.356201 
	C200.981796,195.039795 201.447052,195.111771 201.836563,195.440430 
	C209.879089,203.358276 217.532104,210.947495 225.377808,218.812943 
	C228.042603,221.736694 230.514679,224.384216 232.777252,227.348633 
	C230.208008,228.110336 227.857315,228.612640 225.486328,228.985931 
	C222.276627,229.491287 219.051361,229.897659 215.563965,230.217590 
	C214.958389,229.878784 214.621613,229.668915 214.284836,229.459045 
	C207.125397,222.249390 199.965958,215.039719 192.518066,207.637848 
z"/>
<path fill="#C8B6FE" opacity="1.000000" stroke="none" 
	d="
M300.703339,236.965454 
	C297.766632,234.625488 295.281891,232.295105 292.338013,229.513626 
	C287.602753,224.628723 283.326660,220.194946 279.050568,215.761154 
	C281.174835,215.174088 283.295349,214.094070 285.424011,214.077713 
	C302.860352,213.943787 320.298187,214.007980 338.179260,214.012939 
	C338.721527,219.033035 338.820129,224.052170 338.989197,229.533249 
	C338.964417,232.046448 338.869171,234.097733 338.698212,236.582993 
	C326.133453,237.003006 313.644379,236.989029 300.703339,236.965454 
z"/>
<path fill="#A1DAF3" opacity="1.000000" stroke="none" 
	d="
M484.798462,430.566498 
	C416.874481,431.006134 349.017700,431.014374 281.160950,430.956604 
	C278.562836,430.954407 275.965210,430.315430 273.006287,429.701355 
	C277.784027,424.147644 284.241425,422.742004 291.333130,422.756927 
	C322.480347,422.822449 353.627838,422.783020 384.775208,422.782501 
	C415.756012,422.781952 446.736847,422.780701 477.717651,422.783722 
	C484.975861,422.784424 484.975861,422.791718 484.798462,430.566498 
z"/>
<path fill="#A1DAF3" opacity="1.000000" stroke="none" 
	d="
M240.904449,428.670410 
	C236.787140,429.309814 232.485855,429.952637 228.183960,429.956696 
	C162.398834,430.018738 96.613632,429.997437 30.350250,429.993042 
	C29.314049,422.800476 29.314049,422.785400 36.507397,422.784973 
	C98.375946,422.781403 160.244537,422.814697 222.113007,422.740631 
	C228.975586,422.732422 235.255447,424.058258 240.904449,428.670410 
z"/>
<path fill="#724BAC" opacity="1.000000" stroke="none" 
	d="
M108.109848,282.469879 
	C112.986198,282.000275 117.799927,281.995422 123.114929,282.400604 
	C122.954430,288.598053 127.617294,290.904510 131.124451,294.360504 
	C137.216858,300.759796 143.158463,306.863708 149.100082,312.967590 
	C142.631638,312.998657 136.163177,313.029694 129.207916,313.078796 
	C127.728256,312.233124 126.827614,311.196228 125.695763,310.593567 
	C125.262665,310.362976 124.300964,311.125122 123.461235,311.726257 
	C118.548561,311.744171 113.754807,311.470673 108.568085,311.099854 
	C108.132477,301.646545 108.089851,292.290588 108.109848,282.469879 
z"/>
<path fill="#E8C1FF" opacity="1.000000" stroke="none" 
	d="
M149.356735,313.077332 
	C143.158463,306.863708 137.216858,300.759796 131.332916,294.034851 
	C133.244858,292.943634 135.091248,292.105713 136.954681,292.066040 
	C145.751328,291.878601 154.552628,291.909668 163.633575,292.022797 
	C168.669006,296.774902 173.423141,301.367004 178.177277,305.959137 
	C180.796982,308.727844 183.416687,311.496582 186.206268,314.564819 
	C175.314758,314.976349 164.253372,315.088379 152.665146,315.249756 
	C151.296646,314.595123 150.455017,313.891113 149.356735,313.077332 
z"/>
<path fill="#E8C1FF" opacity="1.000000" stroke="none" 
	d="
M283.624725,298.132080 
	C288.957520,303.610779 294.290314,309.089478 299.783386,314.865234 
	C297.591858,315.773560 295.252136,316.850372 292.885986,316.911957 
	C284.591980,317.127838 276.288879,316.993927 267.524536,316.989136 
	C259.927063,309.935516 252.794296,302.885590 245.986359,295.498810 
	C257.150269,294.788422 267.989349,294.414856 279.110168,294.195953 
	C280.802795,295.611115 282.213776,296.871582 283.624725,298.132080 
z"/>
<path fill="#E8C1FF" opacity="1.000000" stroke="none" 
	d="
M213.119476,319.040527 
	C207.399689,314.033508 201.972794,308.748169 196.101868,303.029297 
	C194.390381,301.179413 193.122894,299.763031 192.107071,298.028625 
	C194.686096,297.140350 196.990494,296.217834 199.345047,296.064270 
	C207.246246,295.548981 215.165329,295.308014 223.077576,294.962036 
	C229.631973,301.410980 236.186356,307.859894 242.884186,314.606384 
	C241.303650,315.600586 239.602127,316.823395 237.851562,316.898163 
	C231.896820,317.152466 225.918625,316.847473 219.962570,317.085907 
	C217.760315,317.174042 215.594681,318.176636 213.119476,319.040527 
z"/>
<path fill="#DFBDFE" opacity="1.000000" stroke="none" 
	d="
M278.828461,294.041290 
	C267.989349,294.414856 257.150269,294.788422 245.793365,295.203186 
	C242.735031,292.882202 240.194504,290.519989 237.194244,287.730835 
	C232.582031,282.954834 228.429565,278.605774 224.744568,274.180542 
	C236.083878,273.755432 246.955719,273.406494 258.121277,273.223450 
	C265.219513,280.273346 272.023987,287.157318 278.828461,294.041290 
z"/>
<path fill="#DFBDFE" opacity="1.000000" stroke="none" 
	d="
M222.969147,294.698914 
	C215.165329,295.308014 207.246246,295.548981 199.345047,296.064270 
	C196.990494,296.217834 194.686096,297.140350 191.806854,297.862488 
	C184.061722,290.724854 176.868439,283.435272 170.084015,275.983887 
	C172.445740,275.549286 174.391327,275.123108 176.352722,275.029968 
	C184.928482,274.622772 193.508820,274.312195 202.382050,274.117249 
	C209.093994,280.519623 215.511398,286.771301 221.928787,293.022949 
	C222.239441,293.493896 222.550079,293.964813 222.969147,294.698914 
z"/>
<path fill="#6A4AAA" opacity="1.000000" stroke="none" 
	d="
M222.339050,292.928833 
	C215.511398,286.771301 209.093994,280.519623 202.231796,273.816803 
	C196.826126,268.254578 191.865265,263.143555 186.904404,258.032501 
	C192.483887,257.153778 198.063385,256.275024 204.250626,255.305542 
	C211.331284,261.562103 217.804199,267.909424 224.277100,274.256744 
	C228.429565,278.605774 232.582031,282.954834 236.885162,287.597382 
	C237.056931,290.846680 235.487640,291.934235 232.648621,292.020416 
	C229.343658,292.120697 226.048645,292.548828 222.339050,292.928833 
z"/>
<path fill="#6A4AAA" opacity="1.000000" stroke="none" 
	d="
M279.110168,294.195953 
	C272.023987,287.157318 265.219513,280.273346 257.972595,272.931854 
	C254.227951,269.026184 250.925751,265.578064 248.080002,262.111572 
	C250.516418,262.320312 252.524796,262.875427 254.470520,262.706970 
	C258.658966,262.344452 262.815186,261.609650 267.245789,261.134949 
	C267.970795,261.559265 268.434662,261.875793 268.898499,262.192352 
	C274.788849,268.176483 280.679169,274.160645 286.827576,280.316040 
	C291.946808,285.469849 296.807922,290.452423 301.827057,295.737701 
	C299.941833,296.692474 297.932404,297.728516 295.847900,297.912231 
	C292.126190,298.240295 288.359161,298.053894 284.117920,298.107330 
	C282.213776,296.871582 280.802795,295.611115 279.110168,294.195953 
z"/>
<path fill="#724BAC" opacity="1.000000" stroke="none" 
	d="
M169.675140,276.145660 
	C176.868439,283.435272 184.061722,290.724854 191.555206,298.180573 
	C193.122894,299.763031 194.390381,301.179413 195.811890,302.878662 
	C194.212891,303.773926 192.499710,304.710785 190.698669,304.931824 
	C186.812149,305.408905 182.880508,305.518402 178.572296,305.868713 
	C173.423141,301.367004 168.669006,296.774902 163.465973,291.722595 
	C158.596710,286.703278 154.176315,282.144104 149.755936,277.584961 
	C152.292526,277.058380 154.815323,276.448273 157.369263,276.026917 
	C160.406586,275.525848 163.470673,275.187012 166.996033,274.592773 
	C168.204300,274.986969 168.939713,275.566315 169.675140,276.145660 
z"/>
<path fill="#BFB2FD" opacity="1.000000" stroke="none" 
	d="
M225.185120,218.536697 
	C217.532104,210.947495 209.879089,203.358276 202.068283,195.481903 
	C203.977020,194.464401 206.025986,193.167862 208.113144,193.103149 
	C216.494980,192.843292 224.888611,192.964905 233.763336,192.928986 
	C237.520355,196.028183 240.791946,199.143906 244.518799,202.723297 
	C249.735001,208.093613 254.495911,213.000244 258.820374,217.883575 
	C250.023209,217.573166 241.663528,217.141251 233.301208,217.082352 
	C230.599396,217.063309 227.890686,218.024109 225.185120,218.536697 
z"/>
<path fill="#564CA9" opacity="1.000000" stroke="none" 
	d="
M259.256805,217.906876 
	C254.495911,213.000244 249.735001,208.093613 244.796707,202.925278 
	C247.121460,202.108521 249.620712,201.540131 252.126480,201.002014 
	C254.954147,200.394760 257.787689,199.814728 260.915985,198.944489 
	C266.970093,204.261200 272.726837,209.856277 278.767090,215.606262 
	C283.326660,220.194946 287.602753,224.628723 292.043701,229.343628 
	C288.456421,230.416077 284.725433,231.339996 280.943329,231.943710 
	C279.007355,232.252731 276.979919,231.988724 274.233612,231.827332 
	C268.734558,227.082947 263.995667,222.494904 259.256805,217.906876 
z"/>
<path fill="#DFBDFE" opacity="1.000000" stroke="none" 
	d="
M149.465851,277.393585 
	C154.176315,282.144104 158.596710,286.703278 163.184692,291.562622 
	C154.552628,291.909668 145.751328,291.878601 136.954681,292.066040 
	C135.091248,292.105713 133.244858,292.943634 131.182129,293.739441 
	C127.617294,290.904510 122.954430,288.598053 123.548744,282.400208 
	C123.481277,272.563873 123.481277,263.138000 123.481277,253.712158 
	C123.947876,253.540390 124.414474,253.368622 124.881073,253.196838 
	C132.979309,261.198639 141.077545,269.200409 149.465851,277.393585 
z"/>
<path fill="#D7BBFF" opacity="1.000000" stroke="none" 
	d="
M170.084015,275.983887 
	C168.939713,275.566315 168.204300,274.986969 167.212921,274.289001 
	C161.016998,268.069641 155.077057,261.968872 149.271210,255.307556 
	C151.595871,254.166260 153.769531,253.175598 155.980286,253.084396 
	C161.783905,252.845001 167.609970,253.149780 173.413620,252.910980 
	C175.434631,252.827835 177.416260,251.787323 179.415863,251.184036 
	C181.716064,253.366852 184.016251,255.549683 186.610413,257.882507 
	C191.865265,263.143555 196.826126,268.254578 201.937241,273.666077 
	C193.508820,274.312195 184.928482,274.622772 176.352722,275.029968 
	C174.391327,275.123108 172.445740,275.549286 170.084015,275.983887 
z"/>
<path fill="#CEB7FE" opacity="1.000000" stroke="none" 
	d="
M179.247162,250.922638 
	C177.416260,251.787323 175.434631,252.827835 173.413620,252.910980 
	C167.609970,253.149780 161.783905,252.845001 155.980286,253.084396 
	C153.769531,253.175598 151.595871,254.166260 149.108734,255.022217 
	C141.928253,248.489288 135.044342,241.681152 127.999512,234.589844 
	C130.112976,233.540817 132.358597,232.237732 134.667374,232.114059 
	C140.613281,231.795532 146.589142,232.082962 152.548630,231.942413 
	C154.307053,231.900955 156.050842,231.239639 158.189880,230.589172 
	C165.411743,237.097733 172.245102,243.879486 179.247162,250.922638 
z"/>
<path fill="#CEB7FE" opacity="1.000000" stroke="none" 
	d="
M213.928833,229.726227 
	C214.621613,229.668915 214.958389,229.878784 215.717804,230.503448 
	C223.031998,237.959076 229.923569,244.999924 236.358078,252.035278 
	C225.025589,252.421860 214.150131,252.813965 203.274689,253.206070 
	C196.626495,246.644150 189.978287,240.082245 183.176239,233.222046 
	C184.786270,232.284271 186.533142,231.154984 188.317078,231.093109 
	C194.795181,230.868347 201.287125,231.076645 207.770645,230.953110 
	C209.710098,230.916138 211.639053,230.328659 213.928833,229.726227 
z"/>
<path fill="#D7BBFF" opacity="1.000000" stroke="none" 
	d="
M203.430557,253.499329 
	C214.150131,252.813965 225.025589,252.421860 236.652054,252.204559 
	C240.809891,255.629547 244.216721,258.879730 247.623550,262.129913 
	C250.925751,265.578064 254.227951,269.026184 257.678833,272.765930 
	C246.955719,273.406494 236.083878,273.755432 224.744568,274.180542 
	C217.804199,267.909424 211.331284,261.562103 204.571228,255.066025 
	C204.051529,254.542358 203.818985,254.167465 203.430557,253.499329 
z"/>
<path fill="#D1B9FF" opacity="1.000000" stroke="none" 
	d="
M269.156036,261.888702 
	C268.434662,261.875793 267.970795,261.559265 267.092133,260.836121 
	C260.423370,254.025558 254.169418,247.621628 248.119568,240.878204 
	C250.159363,240.026245 251.986481,239.109283 253.832214,239.070114 
	C262.631561,238.883453 271.436005,238.935303 280.238617,238.902298 
	C287.468353,246.034164 294.698059,253.166046 302.088593,260.597473 
	C292.820953,260.603821 283.393646,260.235626 273.962921,260.093933 
	C272.454285,260.071289 270.930420,261.062531 269.156036,261.888702 
z"/>
<path fill="#C8B6FE" opacity="1.000000" stroke="none" 
	d="
M280.080261,238.605499 
	C271.436005,238.935303 262.631561,238.883453 253.832214,239.070114 
	C251.986481,239.109283 250.159363,240.026245 247.822632,240.714020 
	C242.543304,236.270126 237.765030,231.650940 232.986755,227.031754 
	C230.514679,224.384216 228.042603,221.736694 225.377808,218.812927 
	C227.890686,218.024109 230.599396,217.063309 233.301208,217.082352 
	C241.663528,217.141251 250.023209,217.573166 258.820374,217.883575 
	C263.995667,222.494904 268.734558,227.082947 273.771057,231.824951 
	C276.019775,234.088852 277.970856,236.198776 280.080261,238.605499 
z"/>
<path fill="#604BA9" opacity="1.000000" stroke="none" 
	d="
M232.777252,227.348633 
	C237.765030,231.650940 242.543304,236.270126 247.618530,241.053497 
	C254.169418,247.621628 260.423370,254.025558 266.830933,260.728363 
	C262.815186,261.609650 258.658966,262.344452 254.470520,262.706970 
	C252.524796,262.875427 250.516418,262.320312 248.080002,262.111572 
	C244.216721,258.879730 240.809891,255.629547 237.109100,252.210068 
	C229.923569,244.999924 223.031998,237.959076 215.986603,230.632370 
	C219.051361,229.897659 222.276627,229.491287 225.486328,228.985931 
	C227.857315,228.612640 230.208008,228.110336 232.777252,227.348633 
z"/>
</svg>