<svg xmlns="http://www.w3.org/2000/svg" viewBox="0 0 512 512" id="data-analytics"><path fill="#a79ba7" fill-rule="evenodd" d="m266.74 326.997 79.538 78.059 28.519-29.39-80.507-78.999a163.278 163.278 0 0 1-27.55 30.33z" clip-rule="evenodd"></path><path fill="#837683" fill-rule="evenodd" d="m360.537 390.361 14.259-14.695-80.507-78.999a163.02 163.02 0 0 1-12.153 15.294l78.401 78.4z" clip-rule="evenodd"></path><path fill="#f1ba84" fill-rule="evenodd" d="m437.037 499.538 32.185-33.17c5.653-5.825 5.509-15.214-.314-20.867l-89.146-86.504c-5.824-5.653-15.217-5.511-20.868.313l-32.185 33.17c-5.652 5.824-5.511 15.217.314 20.868l89.146 86.503c5.824 5.651 15.214 5.512 20.868-.313z" clip-rule="evenodd"></path><path fill="#de9252" fill-rule="evenodd" d="m453.129 482.953 16.093-16.585c5.653-5.825 5.509-15.214-.314-20.867l-89.146-86.504c-5.824-5.653-15.217-5.511-20.868.313l-14.482 14.925 108.717 108.718z" clip-rule="evenodd"></path><circle cx="173.168" cy="218.744" r="162.332" fill="#837683" fill-rule="evenodd" clip-rule="evenodd" transform="rotate(-45.001 173.167 218.747)"></circle><path fill="#685e68" fill-rule="evenodd" d="M173.169 56.412c89.653 0 162.332 72.679 162.332 162.332 0 89.653-72.679 162.332-162.332 162.332V56.412z" clip-rule="evenodd"></path><circle cx="173.168" cy="218.744" r="116.564" fill="#eceff1" fill-rule="evenodd" clip-rule="evenodd" transform="rotate(-45.001 173.167 218.747)"></circle><path fill="#a79ba7" fill-rule="evenodd" d="M173.169 129.18a8 8 0 0 1 0 16c-20.32 0-38.712 8.232-52.023 21.542-13.31 13.31-21.542 31.702-21.542 52.023a8 8 0 0 1-16 0c0-24.737 10.023-47.129 26.229-63.335s38.599-26.23 63.336-26.23z" clip-rule="evenodd"></path><g fill-rule="evenodd" clip-rule="evenodd"><path fill="#fe646f" d="M156.153 166.384h34.031c5.508 0 10 4.492 10 10v76.157c0 5.508-4.492 10-10 10h-34.031c-5.508 0-10-4.492-10-10v-76.157c0-5.508 4.492-10 10-10z"></path><path fill="#fd4755" d="M173.169 166.384h17.016c5.508 0 10 4.492 10 10v76.157c0 5.508-4.492 10-10 10h-17.016v-96.157z"></path><path fill="#ffe177" d="M256.48 67.727h34.031c5.508 0 10 4.492 10 10v174.815c0 5.508-4.492 10-10 10H256.48c-5.508 0-10-4.492-10-10V77.726c0-5.507 4.492-9.999 10-9.999z"></path><path fill="#ffd064" d="M273.495 67.727h17.016c5.508 0 10 4.492 10 10v174.815c0 5.508-4.492 10-10 10h-17.016V67.727z"></path><path fill="#6cf5c2" d="M356.807 104.576h34.032c5.508 0 10 4.492 10 10v137.965c0 5.508-4.492 10-10 10h-34.032c-5.508 0-10-4.492-10-10V114.576c0-5.508 4.492-10 10-10z"></path><path fill="#00e499" d="M373.823 104.576h17.016c5.508 0 10 4.492 10 10v137.965c0 5.508-4.492 10-10 10h-17.016V104.576z"></path><path fill="#8ac9fe" d="M457.132 8h34.032c5.508 0 10 4.492 10 10v234.54c0 5.508-4.492 10-10 10h-34.032c-5.508 0-10-4.492-10-10V18c0-5.508 4.493-10 10-10z"></path><path fill="#60b7ff" d="M474.148 8h17.016c5.508 0 10 4.492 10 10v234.54c0 5.508-4.492 10-10 10h-17.016V8z"></path></g></svg>