<svg xmlns="http://www.w3.org/2000/svg" enable-background="new 0 0 67 67" viewBox="0 0 67 67" id="data-visualization"><rect width="6.554" height="31.335" x="12.18" y="24.965" fill="#8F9FFF"></rect><rect width="6.554" height="18.175" x="23.943" y="38.125" fill="#FFF"></rect><rect width="6.554" height="22.998" x="35.707" y="33.302" fill="#8F9FFF"></rect><rect width="6.554" height="17.672" x="47.471" y="38.629" fill="#FFF"></rect><g><path fill="#FFF" d="M62.43491,16.88391c0,0-7.71733,9.43615-17.23713,9.43615s-17.23713-9.43615-17.23713-9.43615
			s7.71733-9.43615,17.23713-9.43615S62.43491,16.88391,62.43491,16.88391z"></path><circle cx="44.187" cy="15.391" r=".904" fill="#FFF"></circle></g><g><path fill="#2A44E2" d="M45.90356 62.25512c-4.05664 1.82129-8.37695 2.74511-12.84277 2.74511-2.27832 0-4.55225-.24609-6.75879-.73242-.26855-.05762-.53662.11133-.5957.38086-.05957.26953.11084.53613.38086.5957 2.27686.50195 4.62305.75586 6.97363.75586 4.60742 0 9.06641-.95313 13.25293-2.833.25195-.11328.36426-.40918.25098-.66113S46.15454 62.13891 45.90356 62.25512zM21.83374 62.92797c-1.31641-.50488-2.61426-1.10645-3.8584-1.78809-.24219-.13379-.54639-.04395-.67871.19824-.13281.24219-.04395.5459.19824.67871 1.2832.70313 2.62256 1.32422 3.98047 1.84473.26278.0999.54876-.03376.646-.28809C22.22046 63.31567 22.09155 63.02661 21.83374 62.92797zM64.7561 26.34301c-.05957-.26855-.3252-.43896-.59766-.37793-.26855.06104-.43848.32861-.37695.59766.5166 2.29102.77832 4.62598.77832 6.9375 0 2.21875-.23438 4.43652-.69824 6.59375-.05762.26953.11426.53516.38477.59375.29095.05657.53855-.12895.59375-.38477.47754-2.22461.71973-4.51367.71973-6.80273C65.55981 31.1145 65.28931 28.70629 64.7561 26.34301zM63.47778 43.43383c-.26074-.08887-.5459.04883-.63574.30957-.32617.94238-.7002 1.87891-1.1123 2.78027-.11426.25195-.00391.54785.24707.66309.25468.11442.54913.00205.66309-.24707.4248-.93164.81055-1.89648 1.14746-2.87012C63.8772 43.80883 63.7395 43.52465 63.47778 43.43383zM12.29419 9.84448c5.75537-5.05859 13.13037-7.84473 20.7666-7.84473 3.76074 0 7.44531.6665 10.95117 1.98096.25488.09473.5459-.03418.64355-.29297.09766-.2583-.03418-.54639-.29199-.64355-3.61914-1.35645-7.42188-2.04443-11.30273-2.04443-7.87939 0-15.48877 2.87451-21.42676 8.09375-.20752.18213-.22754.49805-.04541.70557C11.77136 10.00713 12.08794 10.02627 12.29419 9.84448z"></path><path fill="#2A44E2" d="M54.52466,52.33581c4.42267-5.03351,7.11328-11.62433,7.11328-18.83557
			c0-4.42999-1.03339-8.61572-2.84192-12.36011c2.40173-1.98627,3.88812-3.77161,4.02551-3.9397
			c0.15137-0.18408,0.15137-0.44873,0-0.63281c-0.32129-0.39307-7.97754-9.61963-17.62402-9.61963
			c-0.47577,0-0.94244,0.03912-1.4079,0.08185C40.47363,5.6795,36.85577,4.92211,33.0603,4.92211
			c-11.48712,0-21.40643,6.81647-25.94287,16.61377V5.55493l1.10742,1.10742c0.19531,0.19531,0.51172,0.19531,0.70703,0
			s0.19531-0.51172,0-0.70703L6.97144,3.99487C6.96765,3.99108,6.96252,3.98998,6.95868,3.98638
			C6.75235,3.79189,6.44648,3.81062,6.26227,3.997l-1.9588,1.95831c-0.19531,0.19531-0.19531,0.51172,0,0.70703
			c0.19531,0.19531,0.51171,0.19532,0.70703,0l1.10693-1.10657v18.42969c-1.05493,2.97833-1.63477,6.1795-1.63477,9.51477
			c0,3.33832,0.57672,6.54358,1.63477,9.52301v12.77777H1.94019c-0.27637,0-0.5,0.22363-0.5,0.5s0.22363,0.5,0.5,0.5h4.17725
			v3.63281c0,0.27637,0.22363,0.5,0.5,0.5s0.5-0.22363,0.5-0.5v-3.63281c0.26233,0,9.54918,0,9.44812,0
			c4.66486,3.31207,10.35071,5.27637,16.49475,5.27637c6.14362,0,11.82886-1.9646,16.49371-5.27637c3.76014,0,6.35696,0,10.03772,0
			l-1.10712,1.10645c-0.19531,0.19531-0.19531,0.51172,0,0.70703c0.19531,0.1953,0.51171,0.19532,0.70703,0l1.96033-1.95935
			c0.19587-0.19535,0.1959-0.51288,0-0.70825l-1.96033-1.96033c-0.19531-0.19531-0.51172-0.19531-0.70703,0
			s-0.19531,0.51172,0,0.70703l1.10742,1.10742h-5.06738V52.33581z M61.77368,16.88403
			c-1.44141,1.625-8.38574,8.93604-16.57617,8.93604c-8.18945,0-15.13428-7.31104-16.57617-8.93604
			c1.44189-1.625,8.38672-8.93604,16.57617-8.93604C53.38794,7.94799,60.33228,15.25903,61.77368,16.88403z M33.0603,5.92211
			c3.0343,0,5.95117,0.50201,8.68311,1.41302c-7.96124,1.74939-13.88812,8.8877-14.16992,9.23248
			c-0.15039,0.18408-0.15039,0.44873,0,0.63281c0.32129,0.39307,7.97852,9.61963,17.62402,9.61963
			c5.0838,0,9.60101-2.56165,12.79694-5.04333c1.68439,3.56097,2.64349,7.52899,2.64349,11.72351
			c0,6.53571-2.29962,12.53601-6.11328,17.26703V38.62915c0-0.27637-0.22363-0.5-0.5-0.5h-6.55371c-0.27637,0-0.5,0.22363-0.5,0.5
			v17.17188h-4.20996V33.302c0-0.27637-0.22363-0.5-0.5-0.5h-6.55371c-0.27637,0-0.5,0.22363-0.5,0.5v22.49902h-4.20996V38.12524
			c0-0.27637-0.22363-0.5-0.5-0.5H23.9436c-0.27637,0-0.5,0.22363-0.5,0.5v17.67578h-4.20996V24.96557
			c0-0.27637-0.22363-0.5-0.5-0.5h-6.55371c-0.27637,0-0.5,0.22363-0.5,0.5v25.91925
			c-1.9455-2.38745-3.49677-5.10577-4.5625-8.05505V24.14965C10.95605,13.53198,21.13495,5.92211,33.0603,5.92211z
			 M41.76099,55.80102h-5.55371V33.802h5.55371V55.80102z M29.99731,55.80102H24.4436V38.62524h5.55371V55.80102z M5.48267,33.50024
			c0-2.01404,0.2229-3.97614,0.63477-5.86859v11.72833C5.70599,37.47046,5.48267,35.51153,5.48267,33.50024z M7.11743,45.46911
			c1.17926,2.54205,2.72473,4.87976,4.5625,6.95331v3.3786h-4.5625V45.46911z M12.67993,25.46557h5.55371v30.33545h-5.55371
			V25.46557z M33.0603,61.07739c-5.40491,0-10.4408-1.57861-14.70093-4.27637c6.58449,0,22.23483,0,29.11157,0h0.29279
			C43.50311,59.49932,38.46594,61.07739,33.0603,61.07739z M47.97095,55.80102V39.12915h5.55371v16.67188H47.97095z"></path><path fill="#2A44E2" d="M45.19751,22.86694c3.29883,0,5.98339-2.68408,5.98339-5.98291s-2.68456-5.98291-5.98339-5.98291
			s-5.98242,2.68408-5.98242,5.98291S41.89868,22.86694,45.19751,22.86694z M45.19751,11.90112
			c2.74805,0,4.98339,2.23535,4.98339,4.98291s-2.23534,4.98291-4.98339,4.98291c-2.74707,0-4.98242-2.23535-4.98242-4.98291
			S42.45044,11.90112,45.19751,11.90112z"></path><circle cx="45.198" cy="16.884" r="2.092" fill="#2A44E2"></circle><path fill="#2A44E2" d="M2.59595 25.82348c.27637 0 .5-.22363.5-.5v-8.81982c0-.27637-.22363-.5-.5-.5s-.5.22363-.5.5v8.81982C2.09595 25.59985 2.31958 25.82348 2.59595 25.82348zM2.59595 14.10083c.27637 0 .5-.22363.5-.5v-2.51172c0-.27637-.22363-.5-.5-.5s-.5.22363-.5.5v2.51172C2.09595 13.87719 2.31958 14.10083 2.59595 14.10083z"></path></g></svg>