<svg fill='white' xmlns="http://www.w3.org/2000/svg" enable-background="new 0 0 128 128" viewBox="0 0 128 128" id="eye"><circle cx="64" cy="64" r="13"></circle><path d="M109,64c0-1.66,1.34-3,3-3h9.89c-2.04-4.16-4.47-8.04-7.23-11.61l-1.98,3.95C112.17,54.36,111.14,55,110,55h-6
			c-1.66,0-3-1.34-3-3s1.34-3,3-3h4.15l2.17-4.34c0.03-0.08,0.08-0.14,0.13-0.21c-1.723-1.829-3.551-3.539-5.453-5.15V30
			c0-1.657-1.343-3-3-3s-3,1.343-3,3v4.779C95.22,32.255,91.202,30.131,87,28.457V16c0-1.103,0.897-2,2-2h2.525
			c1.239,3.49,4.565,6,8.475,6c4.963,0,9-4.038,9-9s-4.037-9-9-9c-3.91,0-7.236,2.51-8.475,6H89c-4.411,0-8,3.589-8,8v10.411
			c-4.532-1.297-9.221-2.096-14-2.33v-4.606c3.49-1.239,6-4.565,6-8.475c0-4.962-4.037-9-9-9c-4.962,0-9,4.038-9,9
			c0,3.909,2.51,7.235,6,8.475v4.606c-4.779,0.234-9.468,1.032-14,2.327V16c0-4.411-3.589-8-8-8h-2.525C35.235,4.51,31.909,2,28,2
			c-4.962,0-9,4.038-9,9s4.038,9,9,9c3.909,0,7.235-2.51,8.475-6H39c1.103,0,2,0.897,2,2v12.452c-3.469,1.381-6.813,3.069-10,5.035
			V30c0-1.657-1.343-3-3-3s-3,1.343-3,3v7.653c-2.637,2.064-5.131,4.332-7.45,6.797c0.04,0.07,0.1,0.13,0.13,0.21L19.85,49H24
			c1.66,0,3,1.34,3,3s-1.34,3-3,3h-6c-1.14,0-2.18-0.64-2.68-1.66l-1.98-3.96C10.58,52.96,8.15,56.84,6.11,61H16c1.66,0,3,1.34,3,3
			s-1.34,3-3,3H6.11c2.04,4.16,4.47,8.04,7.23,11.62l1.98-3.96C15.82,73.64,16.86,73,18,73h6c1.66,0,3,1.34,3,3s-1.34,3-3,3h-4.15
			l-2.17,4.34c-0.03,0.08-0.08,0.15-0.12,0.22c2.315,2.461,4.806,4.727,7.44,6.788V98c0,1.657,1.343,3,3,3s3-1.343,3-3v-3.486
			c3.187,1.966,6.53,3.653,10,5.034V112c0,1.103-0.897,2-2,2h-2.525c-1.24-3.49-4.565-6-8.475-6c-4.962,0-9,4.038-9,9s4.038,9,9,9
			c3.909,0,7.235-2.51,8.475-6H39c4.411,0,8-3.589,8-8v-10.408c4.532,1.295,9.221,2.093,14,2.327v4.606c-3.49,1.24-6,4.565-6,8.475
			c0,4.962,4.038,9,9,9c4.963,0,9-4.038,9-9c0-3.909-2.51-7.235-6-8.475v-4.606c4.78-0.234,9.468-1.032,14-2.328V112
			c0,4.411,3.589,8,8,8h2.525c1.239,3.49,4.565,6,8.475,6c4.963,0,9-4.038,9-9s-4.037-9-9-9c-3.91,0-7.236,2.51-8.475,6H89
			c-1.103,0-2-0.897-2-2V99.546c4.203-1.674,8.221-3.798,11.997-6.323V98c0,1.657,1.343,3,3,3s3-1.343,3-3v-9.302
			c1.898-1.61,3.723-3.32,5.443-5.148c-0.04-0.07-0.09-0.13-0.12-0.21L108.15,79H104c-1.66,0-3-1.34-3-3s1.34-3,3-3h6
			c1.14,0,2.17,0.64,2.68,1.66l1.98,3.95c2.76-3.57,5.19-7.45,7.23-11.61H112C110.34,67,109,65.66,109,64z M100,8
			c1.654,0,3,1.346,3,3s-1.346,3-3,3s-3-1.346-3-3S98.346,8,100,8z M28,14c-1.654,0-3-1.346-3-3s1.346-3,3-3s3,1.346,3,3
			S29.654,14,28,14z M28,120c-1.654,0-3-1.346-3-3s1.346-3,3-3s3,1.346,3,3S29.654,120,28,120z M100,114c1.654,0,3,1.346,3,3
			s-1.346,3-3,3s-3-1.346-3-3S98.346,114,100,114z M64,8c1.654,0,3,1.346,3,3s-1.346,3-3,3s-3-1.346-3-3S62.346,8,64,8z M64,120
			c-1.654,0-3-1.346-3-3s1.346-3,3-3s3,1.346,3,3S65.654,120,64,120z M64,88c-13.25,0-24-10.75-24-24s10.75-24,24-24s24,10.75,24,24
			S77.25,88,64,88z"></path></svg>