<svg fill = 'white' xmlns="http://www.w3.org/2000/svg" enable-background="new 0 0 64 64" viewBox="0 0 64 64" id="hierarchy"><path d="M63.5,51.79h-1.98v-4.09c0-0.44-0.36-0.8-0.8-0.8H50.67v-2.99c0-0.03-0.01-0.05-0.02-0.08c2.17-0.37,3.82-2.25,3.82-4.52c0-2.27-1.65-4.15-3.82-4.52c0-0.03,0.02-0.05,0.02-0.08v-3.31c0-0.44-0.36-0.8-0.8-0.8H37.73v-2.95h-4.93c0,0,0,0,0,0V20.9h12.04c0.63,0,1.14-0.51,1.14-1.14V6.79c0-0.63-0.51-1.14-1.14-1.14H19.17c-0.63,0-1.14,0.51-1.14,1.14v12.96c0,0.63,0.51,1.14,1.14,1.14h12.02v6.76c0,0,0,0,0,0h-4.92v2.95c0,0,0,0,0,0H14.13c-0.44,0-0.8,0.36-0.8,0.8v3.31c0,0.03,0.01,0.05,0.02,0.08c-2.17,0.37-3.82,2.25-3.82,4.52c0,2.27,1.65,4.15,3.82,4.52c0,0.03-0.02,0.05-0.02,0.08v2.99H3.28c-0.44,0-0.8,0.36-0.8,0.8v4.09H0.5c-0.28,0-0.5,0.22-0.5,0.5v5.55c0,0.28,0.22,0.5,0.5,0.5h5.55c0.28,0,0.5-0.22,0.5-0.5v-5.55c0-0.28-0.22-0.5-0.5-0.5H4.08v-3.29h20.11v3.29h-1.98c-0.28,0-0.5,0.22-0.5,0.5v5.55c0,0.28,0.22,0.5,0.5,0.5h5.55c0.28,0,0.5-0.22,0.5-0.5v-5.55c0-0.28-0.22-0.5-0.5-0.5h-1.98v-4.09c0-0.44-0.36-0.8-0.8-0.8H14.93v-2.99c0-0.03-0.01-0.05-0.02-0.08c2.16-0.37,3.82-2.25,3.82-4.52c0-2.27-1.65-4.15-3.82-4.52c0-0.03,0.02-0.05,0.02-0.08v-2.51h11.34c0,0,0,0,0,0v2.95h11.46v-2.95h11.34v2.51c0,0.03,0.01,0.05,0.02,0.08c-2.16,0.37-3.82,2.25-3.82,4.52c0,2.27,1.65,4.15,3.82,4.52c0,0.03-0.02,0.05-0.02,0.08v2.99H39.01c-0.44,0-0.8,0.36-0.8,0.8v4.09h-1.98c-0.28,0-0.5,0.22-0.5,0.5v5.55c0,0.28,0.22,0.5,0.5,0.5h5.55c0.28,0,0.5-0.22,0.5-0.5v-5.55c0-0.28-0.22-0.5-0.5-0.5h-1.98v-3.29h20.11v3.29h-1.98c-0.28,0-0.5,0.22-0.5,0.5v5.55c0,0.28,0.22,0.5,0.5,0.5h5.55c0.28,0,0.5-0.22,0.5-0.5v-5.55C64,52.02,63.78,51.79,63.5,51.79z M38.83,11.94c0.74,0,1.34,0.6,1.34,1.34c0,0.74-0.6,1.34-1.34,1.34c-0.74,0-1.34-0.6-1.34-1.34C37.49,12.54,38.09,11.94,38.83,11.94z M25.17,14.62c-0.74,0-1.34-0.6-1.34-1.34c0-0.74,0.6-1.34,1.34-1.34c0.74,0,1.34,0.6,1.34,1.34C26.51,14.02,25.91,14.62,25.17,14.62z M30.66,13.28c0-0.74,0.6-1.34,1.34-1.34s1.34,0.6,1.34,1.34c0,0.74-0.6,1.34-1.34,1.34S30.66,14.02,30.66,13.28z"></path></svg>