<svg fill = 'white' xmlns="http://www.w3.org/2000/svg" width="48" height="48" enable-background="new 0 0 48 48" version="1" viewBox="0 0 48 48" id="mathematics"><path d="M43.335,3.391H27.28V1c0-0.552-0.445-1-1-1h-4.563c-0.553,0-1,0.448-1,1v2.391H4.665c-1.104,0-2,0.896-2,2v25.115c0,1.104,0.896,2,2,2h13.346L3.935,46.286c-0.291,0.284-0.379,0.716-0.227,1.093C3.86,47.754,4.228,48,4.634,48h5.809c0.268,0,0.521-0.105,0.707-0.293l9.912-9.912V47c0,0.553,0.447,1,1,1h3.873c0.553,0,1-0.447,1-1v-7.271l7.977,7.978C35.101,47.895,35.353,48,35.618,48h5.811c0.406,0,0.771-0.246,0.926-0.621c0.152-0.377,0.064-0.809-0.227-1.093l-14.076-13.78h15.283c1.102,0,2-0.896,2-2V5.391C45.335,4.288,44.437,3.391,43.335,3.391z M22.72,2.001h2.563v0.967H22.72V2.001z M10.03,46.001H7.087l13.197-12.922l1.326,1.342L10.03,46.001z M24.937,37.77V46h-1.873V35.855L24.937,37.77z M36.034,46.001L22.603,32.547l2.674,0.043l13.701,13.412L36.034,46.001L36.034,46.001z M43.333,30.507H4.667V5.392h38.668L43.333,30.507z M43.335,31.507v-1l0,0V31.507z M40.429,6.163H7.571c-1.104,0-2,0.896-2,2v19.438c0,1.103,0.896,2,2,2h32.857c1.102,0,2-0.897,2-2V8.163C42.429,7.059,41.53,6.163,40.429,6.163z M25.446,27.601l2.396-2.397v2.397H25.446z M29.843,27.601v-1.874h4.775v1.874H29.843z M36.62,27.601v-2.874c0-0.552-0.447-1-1-1h-6.303l1.199-1.197c0.391-0.391,0.391-1.024,0-1.414c-0.391-0.391-1.023-0.391-1.414,0l-6.484,6.485H7.571V8.163h32.857v19.438H36.62L36.62,27.601z M16.001,13.002c0,0.552-0.447,1-1,1h-1v1c0,0.552-0.447,1-1,1c-0.555,0-1-0.448-1-1v-1h-1c-0.555,0-1-0.448-1-1c0-0.552,0.445-1,1-1h1v-1c0-0.552,0.445-1,1-1c0.553,0,1,0.448,1,1v1h1C15.554,12.002,16.001,12.45,16.001,13.002z M15.368,18.985c0.393,0.391,0.393,1.023,0,1.414l-3.533,3.535c-0.195,0.195-0.451,0.293-0.707,0.293c-0.258,0-0.514-0.098-0.707-0.293c-0.393-0.39-0.393-1.023,0-1.414l3.533-3.535C14.347,18.595,14.978,18.594,15.368,18.985z M24.001,13.002c0,0.552-0.447,1-1,1h-4c-0.555,0-1-0.448-1-1c0-0.552,0.445-1,1-1h4C23.554,12.002,24.001,12.45,24.001,13.002z M23.104,20.665l-0.773,0.773l0.773,0.773c0.391,0.391,0.391,1.023,0,1.414c-0.195,0.195-0.451,0.293-0.707,0.293s-0.512-0.098-0.707-0.293l-0.773-0.773l-0.773,0.773c-0.195,0.195-0.451,0.293-0.707,0.293s-0.512-0.098-0.707-0.293c-0.391-0.391-0.391-1.023,0-1.414l0.773-0.773l-0.773-0.773c-0.391-0.391-0.391-1.024,0-1.414c0.391-0.391,1.023-0.391,1.414,0l0.773,0.773l0.773-0.773c0.391-0.391,1.023-0.391,1.414,0C23.495,19.641,23.495,20.274,23.104,20.665z M11.255,18.819c0.551,0,1,0.447,1,1c0,0.552-0.449,1-1,1c-0.553,0-1-0.448-1-1C10.255,19.267,10.702,18.819,11.255,18.819z M14.593,22.156c0.551,0,1,0.448,1,1s-0.449,1-1,1c-0.553,0-1-0.448-1-1S14.04,22.156,14.593,22.156z M35.001,11.002h-3.307l-1.635,4.38c-0.146,0.391-0.52,0.65-0.936,0.65h-0.002c-0.418,0-0.793-0.259-0.938-0.652l-0.881-2.378h-0.305c-0.553,0-1-0.448-1-1c0-0.552,0.447-1,1-1h1c0.418,0,0.793,0.26,0.938,0.652l0.189,0.509l0.938-2.511c0.146-0.391,0.52-0.65,0.938-0.65h4c0.553,0,1,0.448,1,1C36.001,10.554,35.554,11.002,35.001,11.002z M38.937,15.351c-0.191,0.508-0.748,0.77-1.258,0.596c-0.133-0.032-0.203,0.045-0.236,0.084c-0.143,0.17-0.354,0.828-0.354,1.705c0,1.725-0.566,3.135-1.512,3.771c-0.438,0.296-1.072,0.494-1.576,0.494c-0.555,0-1-0.448-1-1c0-0.552,0.445-1,1-1c0.09,0,0.336-0.07,0.461-0.153c0.26-0.175,0.627-0.945,0.627-2.111c0-0.474,0.059-2.088,0.826-2.995c0.803-0.954,1.908-0.874,2.438-0.677C38.868,14.26,39.13,14.836,38.937,15.351z"></path></svg>