<svg fill='white' xmlns="http://www.w3.org/2000/svg" enable-background="new 0 0 1024 1024" viewBox="0 0 1024 1024" id="software-developer"><path d="M411.77 541.1l-83.26-83.26c-3.9-3.91-3.9-10.24 0-14.14l83.26-83.26 14.14 14.14-76.19 76.19 76.19 76.19L411.77 541.1zM612.23 541.1l-14.14-14.14 76.19-76.19-76.19-76.19 14.14-14.14 83.26 83.26c1.88 1.88 2.93 4.42 2.93 7.07s-1.05 5.2-2.93 7.07L612.23 541.1z"></path><rect width="184.42" height="20" x="419.79" y="440.77" transform="rotate(-70.427 512.028 450.78)"></rect><path d="M830.2,220.09H193.8c-32.82,0-59.52,26.7-59.52,59.52v440.2c0,32.82,26.7,59.52,59.52,59.52h636.4
		c32.82,0,59.52-26.7,59.52-59.52v-440.2C889.72,246.79,863.02,220.09,830.2,220.09z M869.72,719.81
		c0,21.79-17.73,39.52-39.52,39.52H193.8c-21.79,0-39.52-17.73-39.52-39.52v-440.2c0-21.79,17.73-39.52,39.52-39.52h636.4
		c21.79,0,39.52,17.73,39.52,39.52V719.81z"></path><rect width="149.37" height="111.39" x="437.31" y="769.33" transform="rotate(-180 511.994 825.023)"></rect><path d="M586.68,759.33H437.31c-5.52,0-10,4.47-10,10v111.39c0,5.52,4.48,10,10,10h149.37c5.52,0,10-4.48,10-10V769.33
			C596.68,763.8,592.2,759.33,586.68,759.33z M576.68,870.72H447.31v-91.39h129.37V870.72z"></path><rect width="735.44" height="20" x="144.28" y="653.17"></rect><rect width="295.82" height="20" x="364.09" y="870.72"></rect></svg>