<?xml version="1.0" standalone="no"?>
<!DOCTYPE svg PUBLIC "-//W3C//DTD SVG 20010904//EN"
 "http://www.w3.org/TR/2001/REC-SVG-20010904/DTD/svg10.dtd">
<svg version="1.0" xmlns="http://www.w3.org/2000/svg"
 width="500.000000pt" height="500.000000pt" viewBox="0 0 500.000000 500.000000"
 preserveAspectRatio="xMidYMid meet">
<metadata>
Created by potrace 1.14, written by Peter Selinger 2001-2017
</metadata>
<g transform="translate(0.000000,500.000000) scale(0.100000,-0.100000)"
fill="#000000" stroke="none">
<path d="M2430 4535 c-88 -14 -211 -47 -272 -72 -334 -137 -605 -395 -711
-678 -51 -139 -67 -219 -72 -385 -10 -273 85 -502 301 -726 141 -147 288 -240
619 -394 320 -149 464 -229 573 -318 176 -144 141 -435 -65 -540 -35 -18 -114
-45 -174 -58 -62 -14 -267 -13 -343 2 -210 41 -564 216 -757 376 -26 21 -49
38 -52 38 -5 0 -122 -194 -384 -635 -66 -112 -67 -101 12 -162 100 -77 366
-224 527 -291 129 -54 317 -104 509 -136 69 -11 217 -20 339 -20 123 0 317 11
330 19 3 2 30 6 60 10 30 4 58 9 61 11 3 2 21 6 40 9 49 9 185 49 246 74 353
140 568 364 672 696 46 147 60 256 56 430 -3 171 -18 237 -84 370 -49 100
-100 168 -197 267 -193 196 -366 307 -724 463 -456 199 -637 312 -685 429 -43
102 -2 251 90 328 119 100 342 128 580 73 166 -39 339 -107 484 -193 40 -24
74 -42 75 -40 1 2 53 104 116 228 62 124 141 280 176 348 l63 122 -32 24 c-47
36 -153 98 -227 133 -107 51 -420 153 -520 169 -14 2 -45 9 -70 14 -126 26
-442 35 -560 15z"/>
</g>
</svg>
